<?xml version="1.0" encoding="UTF-8" standalone="no"?>
<!-- Created with Inkscape (http://www.inkscape.org/) -->
<svg
   xmlns:ns="http://creativecommons.org/ns#"
   xmlns:dc="http://purl.org/dc/elements/1.1/"
   xmlns:cc="http://web.resource.org/cc/"
   xmlns:rdf="http://www.w3.org/1999/02/22-rdf-syntax-ns#"
   xmlns:svg="http://www.w3.org/2000/svg"
   xmlns="http://www.w3.org/2000/svg"
   xmlns:sodipodi="http://sodipodi.sourceforge.net/DTD/sodipodi-0.dtd"
   xmlns:inkscape="http://www.inkscape.org/namespaces/inkscape"
   width="500"
   height="500"
   id="svg2"
   version="1.1"
   inkscape:version="0.45.1"
   sodipodi:docname="010b.svg"
   sodipodi:version="0.32"
   sodipodi:docbase="/root"
   inkscape:output_extension="org.inkscape.output.svg.inkscape">
  <defs
     id="defs4">
    <linearGradient
       id="linearGradient4036">
      <stop
         id="stop4038"
         offset="0"
         style="stop-color:#ffa52a;stop-opacity:1;" />
      <stop
         id="stop4040"
         offset="1"
         style="stop-color:#ed5d19;stop-opacity:1;" />
    </linearGradient>
    <linearGradient
       id="linearGradient4028">
      <stop
         style="stop-color:#ffa52a;stop-opacity:1;"
         offset="0"
         id="stop4030" />
      <stop
         style="stop-color:#ed5d19;stop-opacity:1;"
         offset="1"
         id="stop4032" />
    </linearGradient>
  </defs>
  <sodipodi:namedview
     id="base"
     pagecolor="#ffffff"
     bordercolor="#666666"
     borderopacity="1.0"
     inkscape:pageopacity="0.0"
     inkscape:pageshadow="2"
     inkscape:zoom="0.992"
     inkscape:cx="250"
     inkscape:cy="250"
     inkscape:document-units="px"
     inkscape:current-layer="layer5"
     showgrid="false"
     inkscape:window-width="1280"
     inkscape:window-height="706"
     inkscape:window-x="0"
     inkscape:window-y="0"
     inkscape:window-maximized="1" />
  <metadata
     id="metadata7">
    <rdf:RDF>
      <ns:Work
         rdf:about="">
        <dc:format>image/svg+xml</dc:format>
        <dc:type
           rdf:resource="http://purl.org/dc/dcmitype/StillImage" />
        <dc:title />
      </ns:Work>
      <cc:Work
         rdf:about="">
        <dc:format>image/svg+xml</dc:format>
        <dc:type
           rdf:resource="http://purl.org/dc/dcmitype/StillImage" />
      </cc:Work>
    </rdf:RDF>
  </metadata>
  <g
     inkscape:label="Layer 1"
     inkscape:groupmode="layer"
     id="layer1"
     style="display:inline"
     transform="translate(0,-552.36218)">
    <path
       sodipodi:type="arc"
       style="fill:#ffeb64;fill-opacity:1;fill-rule:nonzero;stroke:none"
       id="path5500"
       sodipodi:cx="307.08636"
       sodipodi:cy="464.95847"
       sodipodi:rx="78.791901"
       sodipodi:ry="78.791901"
       d="m 385.87827,464.95847 a 78.791901,78.791901 0 1 1 -157.58381,0 78.791901,78.791901 0 1 1 157.58381,0 z"
       transform="matrix(2.2502854,0,0,1.961258,-449.65405,-150.70062)" />
    <rect
       y="726.24268"
       x="141.51643"
       height="47.542072"
       width="76.680763"
       id="rect5538"
       style="fill:#ffe8c6;fill-opacity:1;fill-rule:nonzero;stroke:none" />
    <rect
       y="722.40863"
       x="183.69093"
       height="47.542072"
       width="76.680763"
       id="rect5540"
       style="fill:#ffe8c6;fill-opacity:1;fill-rule:nonzero;stroke:none" />
    <rect
       y="717.04102"
       x="226.63214"
       height="47.542072"
       width="76.680763"
       id="rect5542"
       style="fill:#ffe8c6;fill-opacity:1;fill-rule:nonzero;stroke:none" />
    <rect
       y="712.44006"
       x="257.30441"
       height="47.542072"
       width="76.680763"
       id="rect5544"
       style="fill:#ffe8c6;fill-opacity:1;fill-rule:nonzero;stroke:none" />
    <rect
       y="730.07666"
       x="274.17419"
       height="47.542072"
       width="76.680763"
       id="rect5546"
       style="fill:#ffe8c6;fill-opacity:1;fill-rule:nonzero;stroke:none" />
    <rect
       y="804.30902"
       x="140.79706"
       height="25.212992"
       width="22.773026"
       id="rect5552"
       style="fill:#ffe8c6;fill-opacity:1;fill-rule:nonzero;stroke:none" />
    <rect
       y="820.30438"
       x="149.20139"
       height="25.212992"
       width="22.773026"
       id="rect5554"
       style="fill:#ffe8c6;fill-opacity:1;fill-rule:nonzero;stroke:none" />
    <rect
       y="835.21521"
       x="151.6414"
       height="25.212992"
       width="22.773026"
       id="rect5556"
       style="fill:#ffe8c6;fill-opacity:1;fill-rule:nonzero;stroke:none" />
    <rect
       y="829.25073"
       x="328.13229"
       height="25.212992"
       width="22.773026"
       id="rect5558"
       style="fill:#ffe8c6;fill-opacity:1;fill-rule:nonzero;stroke:none" />
    <rect
       y="810.81555"
       x="331.38559"
       height="25.212992"
       width="22.773026"
       id="rect5560"
       style="fill:#ffe8c6;fill-opacity:1;fill-rule:nonzero;stroke:none" />
    <rect
       y="798.88684"
       x="335.18106"
       height="25.212992"
       width="22.773026"
       id="rect5562"
       style="fill:#ffe8c6;fill-opacity:1;fill-rule:nonzero;stroke:none" />
    <rect
       y="862.86816"
       x="254.93329"
       height="25.212992"
       width="22.773026"
       id="rect5564"
       style="fill:#ffe8c6;fill-opacity:1;fill-rule:nonzero;stroke:none" />
    <rect
       y="866.1214"
       x="239.20905"
       height="25.212992"
       width="22.773026"
       id="rect5566"
       style="fill:#ffe8c6;fill-opacity:1;fill-rule:nonzero;stroke:none" />
    <rect
       y="865.57928"
       x="234.32915"
       height="25.212992"
       width="22.773026"
       id="rect5568"
       style="fill:#ffe8c6;fill-opacity:1;fill-rule:nonzero;stroke:none" />
  </g>
  <g
     inkscape:groupmode="layer"
     id="layer3"
     inkscape:label="Layer#1"
     style="display:inline"
     transform="translate(0,-552.36218)" />
  <g
     inkscape:groupmode="layer"
     id="layer4"
     inkscape:label="Layer#2"
     transform="translate(0,-552.36218)">
    <path
       style="fill:none;stroke:#000000;stroke-width:0.85882455;stroke-linecap:round;stroke-linejoin:round;stroke-miterlimit:4;stroke-opacity:1;stroke-dasharray:none"
       id="path3824"
       d="m 178.62308,690.52592 c -0.89577,0.39294 -1.78128,0.80854 -2.63781,1.28115 -1.25588,0.70536 -2.54094,1.61 -3.79622,2.46831 -2.45759,1.68744 -4.84869,3.45608 -7.1395,5.36327 -2.45838,2.10919 -4.82627,4.31918 -7.18179,6.54156 -2.23135,2.12282 -4.32708,4.3808 -6.31371,6.73261 -2.21246,2.55895 -4.25657,5.23288 -6.12162,8.05322 -1.93143,2.98585 -3.57479,6.13945 -5.17139,9.31249 -1.64293,3.13312 -2.78106,6.45591 -3.73094,9.85175 -1.05372,3.74134 -1.7768,7.55632 -2.35267,11.39623 -0.52674,3.46519 -0.87076,6.94809 -1.03267,10.44808 -0.10027,3.00135 0.0932,6.00138 0.38132,8.98725 0.30492,2.85377 0.91469,5.66011 1.64864,8.43063 0.72803,2.80537 1.56465,5.58288 2.48022,8.33245 1.09917,3.11693 2.31146,6.19203 3.46076,9.29057 1.17988,3.02141 2.28869,6.0694 3.43088,9.10491 1.00564,2.60537 2.02208,5.20598 2.98233,7.82872 0.96002,2.70663 1.86689,5.43198 2.71009,8.17719 0.70681,2.3181 1.30326,4.66737 1.8224,7.03397 0.44904,2.09596 0.79738,4.21127 1.11216,6.33093 0.27632,1.88658 0.48702,3.78171 0.67546,5.67879 0.16425,1.66805 0.21501,3.34898 0.17692,5.02433 -0.0657,1.50686 -0.15716,3.01242 -0.23089,4.51888 -0.0977,1.4953 -0.0876,2.99474 0.0172,4.48901 0.23343,1.77131 0.93696,3.39869 1.78239,4.95323 1.02277,1.79752 2.56284,3.19141 4.0436,4.601 1.40572,1.36448 2.97175,2.53573 4.62026,3.5868 1.65708,1.06022 3.46259,1.81427 5.29719,2.50231 2.15754,0.79203 4.35419,1.46511 6.55878,2.11157 2.27882,0.65436 4.59488,1.1612 6.92322,1.60195 2.68513,0.45642 5.39868,0.72143 8.10782,0.98919 2.4257,0.23671 4.85542,0.42815 7.28637,0.60167 2.17173,0.15738 4.3464,0.2665 6.52144,0.36505 2.12173,0.0562 4.23828,0.18464 6.35479,0.33769 2.145,0.15566 4.29245,0.27375 6.44026,0.38213 2.01053,0.10993 4.00266,0.40541 5.99889,0.6541 1.88029,0.23598 3.7589,0.50207 5.62773,0.81737 1.78878,0.3239 3.56268,0.72068 5.35159,1.04581 1.78977,0.38336 3.58909,0.71501 5.39608,1.00566 1.73485,0.27495 3.47948,0.47972 5.22612,0.66228 1.6586,0.17005 3.3214,0.29344 4.98492,0.40333 1.61014,0.10413 3.22198,0.17863 4.83408,0.24483 1.58035,0.0636 3.16136,0.10864 4.74245,0.14857 1.61629,0.0515 3.2309,0.0773 4.84706,0.0193 1.67054,-0.082 3.34029,-0.23835 5.00059,-0.44152 1.82571,-0.19925 3.63517,-0.50325 5.43756,-0.85103 1.8433,-0.36357 3.69031,-0.71897 5.52298,-1.13372 1.76363,-0.40794 3.52373,-0.83005 5.29456,-1.20607 1.67757,-0.3288 3.3398,-0.7304 4.99001,-1.17523 1.61234,-0.38834 3.19435,-0.8865 4.78608,-1.34907 1.57792,-0.4623 3.16571,-0.88987 4.74681,-1.34084 1.56201,-0.43091 3.12459,-0.86026 4.69062,-1.27662 1.57429,-0.37 3.10297,-0.90125 4.65459,-1.35247 1.52502,-0.39292 3.03586,-0.83669 4.55667,-1.24556 1.69693,-0.46892 3.37576,-0.99595 5.05918,-1.51005 1.55628,-0.46711 3.14154,-0.82344 4.71044,-1.24396 1.51767,-0.39762 3.04224,-0.76889 4.5583,-1.17253 1.54573,-0.40262 3.09647,-0.77889 4.62277,-1.25165 1.46582,-0.42843 2.88438,-1.00579 4.25088,-1.6847 0.95248,-0.49734 1.87177,-1.18601 2.72597,-1.98448 1.0213,-1.01369 1.87458,-2.16609 2.63207,-3.38467 0.74196,-1.22683 1.2746,-2.55803 1.74408,-3.90774 0.47252,-1.35518 0.74541,-2.7652 1.08987,-4.15486 0.36261,-1.34791 0.65562,-2.71196 0.90739,-4.0844 0.29483,-1.5505 0.44302,-3.1182 0.51104,-4.69309 0.0554,-1.70161 0.0732,-3.40419 0.0927,-5.10653 0.0172,-1.6422 0.0303,-3.28444 0.0412,-4.92671 0.0129,-1.76115 0.0193,-3.52232 0.0249,-5.28351 -0.0107,-1.74107 0.12196,-3.47906 0.22083,-5.21635 0.10005,-1.53285 0.34559,-3.04683 0.58952,-4.56128 0.30471,-1.44397 0.56557,-2.89695 0.86679,-4.34147 0.28541,-1.42951 0.63338,-2.84558 1.01983,-4.25094 0.41058,-1.42765 0.83085,-2.85463 1.33174,-4.25357 0.53204,-1.46013 1.05133,-2.9249 1.58549,-4.38423 0.49692,-1.44298 1.05762,-2.86247 1.55033,-4.30686 0.52554,-1.4054 0.97326,-2.83599 1.36014,-4.28512 0.34862,-1.4734 0.67895,-2.95181 0.99585,-4.43248 0.39949,-1.60817 0.74213,-3.22781 1.03437,-4.85861 0.31139,-1.75703 0.51336,-3.53028 0.68708,-5.30532 0.18401,-1.9125 0.30969,-3.82965 0.41849,-5.74764 0.10971,-1.96096 0.18507,-3.92357 0.25404,-5.8863 0.0548,-1.99832 0.14063,-3.99674 0.12689,-5.99604 -0.009,-2.12776 -0.13462,-4.24985 -0.28249,-6.37147 -0.11852,-2.09806 -0.2899,-4.19074 -0.49198,-6.28217 -0.17713,-1.92078 -0.45913,-3.82993 -0.69245,-5.7444 -0.20891,-1.79741 -0.46069,-3.59169 -0.82303,-5.36492 -0.45853,-2.00154 -1.20633,-3.92037 -1.94863,-5.82983 -0.70372,-1.86406 -1.49466,-3.69132 -2.36849,-5.4816 -0.79561,-1.7272 -1.80656,-3.339 -2.88058,-4.90374 -1.0667,-1.58569 -2.15383,-3.15687 -3.24735,-4.72413 -1.14062,-1.49618 -2.34098,-2.95056 -3.59175,-4.35629 -1.4845,-1.62663 -3.02682,-3.19901 -4.59102,-4.74867 -1.56849,-1.55224 -3.25411,-2.97207 -4.98472,-4.33846 -1.99772,-1.58112 -4.13992,-2.95996 -6.30657,-4.29458 -2.38141,-1.47086 -4.86039,-2.76371 -7.37157,-3.9955 -2.39835,-1.23965 -4.84005,-2.38857 -7.3098,-3.47766 -2.52707,-1.11289 -5.10479,-2.10339 -7.70679,-3.02536 -2.40967,-0.80921 -4.83404,-1.57487 -7.27358,-2.28927 -2.36494,-0.69936 -4.77497,-1.22575 -7.16062,-1.84593 -2.27949,-0.60562 -4.57899,-1.12921 -6.88938,-1.60162 -1.96961,-0.46626 -3.94596,-0.89653 -5.93615,-1.26514 -1.83724,-0.33541 -3.68758,-0.58999 -5.54084,-0.8176 -1.87698,-0.20912 -3.75957,-0.35027 -5.63571,-0.56751 -1.78702,-0.21767 -3.57787,-0.4006 -5.37085,-0.56113 -1.71106,-0.1518 -3.42534,-0.26109 -5.14039,-0.35487 -1.7373,-0.093 -3.47582,-0.15888 -5.21459,-0.2158 -1.85751,-0.0597 -3.71564,-0.0964 -5.57373,-0.13097 -1.82058,-0.0331 -3.64129,-0.0582 -5.46202,-0.0797 -1.84583,-0.0215 -3.69172,-0.0354 -5.53763,-0.0483 -1.77743,-0.0129 -3.55489,-0.0215 -5.33234,-0.0294 -1.78019,-0.009 -3.56038,-0.0129 -5.3406,-0.0172 -2.03726,-0.0393 -4.07177,0.0193 -6.10684,0.10521 -1.99048,0.05 -3.97254,0.23628 -5.95541,0.40414 -1.74999,0.149 -3.49727,0.36013 -5.23368,0.62481 -1.58629,0.20548 -3.14197,0.55931 -4.6898,0.95341 -1.59819,0.37569 -3.13506,0.94245 -4.67978,1.4881 -1.42106,0.5334 -2.82702,1.09397 -4.20893,1.72148 -1.29919,0.58256 -2.58461,1.1952 -3.88356,1.7789 -1.34041,0.60865 -2.66858,1.24122 -3.98737,1.8951 -1.30121,0.61488 -2.60323,1.22838 -3.86527,1.92096 -0.52298,0.2786 -1.43946,0.79875 -1.76001,0.97693 0,0 -0.71454,0.27489 -0.71454,0.27489 l 0,0 c 1.01605,-0.59087 2.03543,-1.17537 3.07066,-1.73221 1.26472,-0.68794 2.5664,-1.30221 3.86713,-1.91857 1.31884,-0.65421 2.64883,-1.28366 3.98918,-1.89287 1.2982,-0.58518 2.5841,-1.19675 3.88339,-1.77905 1.38269,-0.62675 2.79135,-1.18331 4.2129,-1.71623 1.54524,-0.54675 3.08528,-1.10664 4.68405,-1.48266 1.54904,-0.39381 3.10749,-0.73979 4.69429,-0.94728 1.73783,-0.261 3.48535,-0.47442 5.23653,-0.62065 1.98342,-0.1679 3.96619,-0.35115 5.95718,-0.40148 2.03578,-0.0861 4.0711,-0.14042 6.10901,-0.10263 1.78028,0.004 3.56056,0.0107 5.34081,0.0172 1.77747,0.009 3.55494,0.0172 5.33236,0.0296 1.846,0.0129 3.69196,0.0273 5.53787,0.0485 1.82084,0.0215 3.64161,0.0468 5.46228,0.0801 1.85834,0.0348 3.71671,0.0717 5.57443,0.13183 1.73912,0.0573 3.47799,0.12367 5.2156,0.21716 1.71559,0.0945 3.43038,0.20461 5.14194,0.35701 1.79331,0.16146 3.58445,0.34529 5.3719,0.56281 1.87634,0.21627 3.75931,0.35583 5.6361,0.56794 1.85414,0.22879 3.70536,0.48466 5.54339,0.82149 1.99022,0.37002 3.96635,0.80263 5.93678,1.26642 2.31105,0.4739 4.61113,0.99905 6.89148,1.60501 2.38661,0.61866 4.79671,1.14735 7.16185,1.84796 2.44031,0.71566 4.86584,1.48143 7.27592,2.29285 2.60299,0.92385 5.18178,1.91593 7.70999,3.03008 2.47026,1.09004 4.91179,2.24125 7.3113,3.48039 2.51262,1.23378 4.99299,2.52874 7.37573,4.00156 2.16843,1.33706 4.31248,2.71816 6.3117,4.30185 1.73206,1.36897 3.41941,2.79103 4.98936,4.3457 1.56484,1.55127 3.10837,3.12466 4.59366,4.75269 1.25223,1.40843 2.45484,2.86478 3.59652,4.36394 1.09361,1.56744 2.18047,3.13903 3.24741,4.72481 1.07587,1.568 2.08926,3.18271 2.88638,4.9134 0.87489,1.7921 1.66692,3.62123 2.37147,5.48724 0.74385,1.91335 1.49344,3.83594 1.95497,5.84108 0.36425,1.77485 0.61678,3.57104 0.82593,5.37038 0.23304,1.91514 0.51542,3.82484 0.6932,5.74614 0.20225,2.0921 0.37505,4.18527 0.49284,6.28404 0.14814,2.12303 0.27534,4.24641 0.28478,6.37561 0.015,2.00027 -0.0713,3.99966 -0.12539,5.99893 -0.0687,1.96323 -0.14385,3.92634 -0.25331,5.88781 -0.10842,1.91889 -0.23351,3.83697 -0.41702,5.75038 -0.17305,1.77678 -0.3738,3.55184 -0.68423,5.31072 -0.29116,1.63166 -0.6311,3.2526 -1.03316,4.86086 -0.31571,1.48194 -0.64887,2.96069 -0.99413,4.43589 -0.38523,1.45088 -0.83019,2.88383 -1.35791,4.28983 -0.49091,1.44555 -1.05339,2.86478 -1.54964,4.30849 -0.53559,1.45869 -1.05262,2.92414 -1.5857,4.38378 -0.50367,1.39645 -0.92224,2.82251 -1.33411,4.24828 -0.38862,1.40345 -0.73589,2.81856 -1.02196,4.24661 -0.30323,1.44313 -0.55936,2.89613 -0.86838,4.33827 -0.24311,1.51239 -0.49192,3.02362 -0.59315,4.55428 -0.0988,1.73616 -0.23145,3.47294 -0.2228,5.21281 -0.006,1.76121 -0.0129,3.52244 -0.0245,5.28364 -0.0107,1.64237 -0.0234,3.28472 -0.0412,4.92705 -0.0193,1.70303 -0.0371,3.40629 -0.0917,5.10865 -0.0666,1.57794 -0.21148,3.1488 -0.5061,4.70246 -0.25059,1.37394 -0.54164,2.7398 -0.90529,4.08875 -0.34768,1.39063 -0.61576,2.80355 -1.08695,4.16109 -0.46763,1.35424 -0.99802,2.69029 -1.7371,3.92311 -0.75459,1.22445 -1.60588,2.38148 -2.6241,3.40301 -1.19469,1.13298 -2.56909,1.99715 -4.03227,2.75324 -1.37083,0.67295 -2.79062,1.24843 -4.25839,1.67507 -1.52772,0.46892 -3.07889,0.84532 -4.62456,1.24919 -1.51672,0.40117 -3.04056,0.77519 -4.55825,1.17272 -1.56864,0.41977 -3.15393,0.77513 -4.7087,1.246 -1.68338,0.51526 -3.36339,1.03965 -5.0608,1.50801 -1.52029,0.40986 -3.03162,0.85131 -4.55574,1.24685 -1.55123,0.45313 -3.08114,0.98107 -4.65566,1.35106 -1.56551,0.4176 -3.12851,0.84486 -4.68983,1.27765 -1.58174,0.4486 -3.16825,0.88023 -4.74651,1.34118 -1.59157,0.46381 -3.17494,0.95787 -4.78706,1.34786 -1.65101,0.44382 -3.31457,0.84169 -4.99231,1.17185 -1.77038,0.37743 -3.53028,0.80003 -5.29407,1.20684 -1.83387,0.41105 -3.68022,0.77032 -5.52435,1.13176 -1.80347,0.34681 -3.61449,0.64669 -5.44087,0.84684 -1.66193,0.19968 -3.33243,0.35871 -5.00452,0.43628 -1.61708,0.0554 -3.23272,0.0266 -4.84984,-0.0236 -1.58134,-0.0404 -3.16256,-0.0857 -4.74314,-0.14965 -1.61247,-0.0668 -3.22467,-0.1415 -4.83518,-0.2464 -1.66408,-0.11057 -3.32743,-0.23467 -4.98655,-0.40575 -1.74745,-0.18358 -3.49291,-0.38954 -5.22851,-0.66581 -1.80714,-0.29189 -3.60633,-0.62591 -5.39696,-1.00692 -1.78839,-0.32625 -3.56193,-0.72389 -5.35099,-1.04496 -1.86852,-0.31263 -3.74593,-0.58056 -5.62575,-0.81479 -1.9949,-0.24899 -3.98609,-0.54243 -5.99554,-0.64959 -2.14814,-0.10886 -4.29591,-0.22742 -6.44121,-0.38349 -2.1161,-0.15287 -4.23237,-0.27795 -6.35356,-0.33603 -2.17542,-0.099 -4.35044,-0.20891 -6.52254,-0.36672 -2.43124,-0.17413 -4.86126,-0.3662 -7.28725,-0.6036 -2.71067,-0.26867 -5.42584,-0.53437 -8.11201,-0.99457 -2.32977,-0.44287 -4.64733,-0.95157 -6.92743,-1.60812 -2.20571,-0.64797 -4.40373,-1.32191 -6.56206,-2.11617 -1.83816,-0.69157 -3.64653,-1.45113 -5.30627,-2.51547 -1.65096,-1.05574 -3.2193,-2.2314 -4.62788,-3.5994 -1.48646,-1.41517 -3.02966,-2.81686 -4.05604,-4.62136 -0.85077,-1.56394 -1.55801,-3.20075 -1.79833,-4.98178 -0.10757,-1.49678 -0.11874,-2.99919 -0.0215,-4.49719 0.0734,-1.50595 0.16425,-3.01098 0.23181,-4.51719 0.0412,-1.67245 -0.0107,-3.35081 -0.1724,-5.01609 -0.18787,-1.896 -0.39794,-3.79006 -0.6736,-5.67558 -0.31395,-2.11814 -0.66145,-4.23195 -1.10947,-6.32645 -0.51792,-2.36482 -1.11338,-4.71226 -1.8191,-7.0286 -0.84229,-2.74414 -1.74865,-5.46826 -2.70788,-8.17377 -0.96008,-2.62258 -1.97682,-5.22284 -2.98205,-7.8281 -1.14226,-3.03565 -2.25031,-6.08407 -3.43072,-9.10541 -1.14961,-3.09933 -2.36199,-6.17527 -3.46223,-9.2927 -0.91703,-2.75071 -1.75389,-5.5298 -2.48269,-8.33654 -0.73586,-2.77411 -1.34747,-5.58408 -1.65448,-8.44161 -0.28972,-2.98907 -0.48388,-5.99236 -0.38604,-8.99706 0.16081,-3.50242 0.50273,-6.98776 1.02969,-10.45535 0.57481,-3.84262 1.29532,-7.66063 2.34862,-11.40479 0.94806,-3.39989 2.08053,-6.72807 3.72432,-9.86495 1.59619,-3.17533 3.23856,-6.33145 5.16793,-9.3208 1.86329,-2.82341 3.90304,-5.50193 6.11777,-8.06131 1.98443,-2.35522 4.07987,-4.61505 6.31026,-6.74055 2.3555,-2.22326 4.72334,-4.43405 7.18012,-6.54596 2.28937,-1.90986 4.67806,-3.68183 7.1361,-5.36974 1.66125,-1.13704 3.32554,-2.27896 5.10414,-3.22832 0.85958,-0.46812 1.74638,-0.88105 2.64027,-1.27939 0,0 -0.59856,0.47877 -0.59856,0.47877 z"
       inkscape:connector-curvature="0" />
    <path
       style="fill:none;stroke:#000000;stroke-width:0.85882455;stroke-linecap:round;stroke-linejoin:round;stroke-miterlimit:4;stroke-opacity:1;stroke-dasharray:none"
       id="path3832"
       d="m 134.34703,765.38974 c 0.5408,-0.62035 1.08618,-1.23698 1.61652,-1.86633 0.85292,-0.98591 1.69253,-1.98184 2.50764,-2.99951 0.85543,-1.08716 1.6191,-2.23932 2.38002,-3.39334 0.8982,-1.30894 1.74496,-2.65132 2.60522,-3.98516 0.98997,-1.61309 2.067,-3.16982 3.1652,-4.71035 1.12001,-1.54789 2.38079,-2.98481 3.62434,-4.43272 1.269,-1.44602 2.61216,-2.82435 3.97342,-4.18303 1.25245,-1.20167 2.52183,-2.38387 3.8789,-3.46695 1.54529,-1.1905 3.2321,-2.19043 4.99132,-3.02925 2.31655,-0.83868 4.76184,-1.23709 7.18035,-1.66032 2.44928,-0.42016 4.91065,-0.76905 7.38654,-0.98421 2.36284,-0.21731 4.73442,-0.13269 7.09999,-0.0281 2.36367,0.0371 4.70676,0.2908 7.04384,0.62606 2.35032,0.30156 4.68057,0.7221 6.99517,1.2266 2.20849,0.47001 4.37084,1.12536 6.55328,1.69946 2.28752,0.60554 4.53075,1.35435 6.77112,2.11187 2.71127,0.97683 5.44033,1.90028 8.19579,2.74429 2.45359,0.77464 4.95799,1.34432 7.4874,1.8019 2.51597,0.43824 5.04686,0.78228 7.5807,1.09799 2.18094,0.25638 4.36343,0.51254 6.55635,0.63772 2.00151,0.094 4.0036,0.12882 6.00634,0.0715 2.08739,-0.0107 4.16057,-0.21928 6.22564,-0.50681 2.18843,-0.28408 4.35707,-0.68317 6.52073,-1.11231 2.1382,-0.43989 4.25239,-0.9791 6.35885,-1.54914 2.03861,-0.53836 4.04476,-1.18027 6.04507,-1.84397 1.8344,-0.56817 3.6315,-1.24525 5.42317,-1.93383 1.72994,-0.62239 3.41806,-1.34868 5.10666,-2.07331 1.64886,-0.6902 3.28567,-1.40903 4.92757,-2.11584 1.66752,-0.67435 3.2911,-1.44994 4.94389,-2.15847 1.47321,-0.63735 2.89754,-1.37663 4.33172,-2.09536 1.36991,-0.68729 2.70506,-1.43922 4.09034,-2.09564 1.2585,-0.67024 2.56314,-1.2381 3.90181,-1.72587 1.49296,-0.51048 3.04035,-0.83035 4.59195,-1.10017 1.76915,-0.30147 3.56401,-0.41134 5.3561,-0.36292 2.35043,0.13934 4.64957,0.72695 6.89565,1.4037 2.47125,0.76315 4.8783,1.69412 7.22667,2.77439 2.32541,1.1122 4.52192,2.46494 6.69683,3.84219 1.98912,1.28553 3.89591,2.6919 5.74972,4.16457 1.79243,1.4223 3.4476,3.00088 5.06112,4.61979 1.47823,1.51419 2.89682,3.08314 4.28783,4.67735 1.13986,1.39065 2.2296,2.82246 3.3238,4.24931 0.94836,1.23613 1.69766,2.60486 2.46397,3.95665 0.48058,0.84234 0.87203,1.72864 1.24369,2.62274 0,0 -0.66789,0.37415 -0.66789,0.37415 l 0,0 c -0.37011,-0.89139 -0.76002,-1.77502 -1.23905,-2.61465 -0.76452,-1.34876 -1.51194,-2.7145 -2.45847,-3.94758 -1.09335,-1.42548 -2.18161,-2.85643 -3.32105,-4.24532 -1.39016,-1.59274 -2.80756,-3.1605 -4.28502,-4.67315 -1.61182,-1.61658 -3.26568,-3.19242 -5.05648,-4.61223 -1.85255,-1.47009 -3.75729,-2.87489 -5.74504,-4.15785 -2.17285,-1.37489 -4.36734,-2.72528 -6.69138,-3.83358 -2.34655,-1.07698 -4.75177,-2.00496 -7.22061,-2.76565 -2.24274,-0.6716 -4.53773,-1.25689 -6.88443,-1.38665 -1.78951,-0.0423 -3.58136,0.0704 -5.34721,0.37522 -1.54926,0.27312 -3.09471,0.59456 -4.58387,1.11112 -1.33663,0.49164 -2.63771,1.06518 -3.89737,1.73143 -1.38324,0.66001 -2.7188,1.4112 -4.08929,2.09687 -1.43385,0.71995 -2.86036,1.45564 -4.33442,2.09169 -1.65176,0.71074 -3.2767,1.48316 -4.94374,2.15846 -1.6416,0.70754 -3.27904,1.42496 -4.92766,2.1158 -1.68862,0.72528 -3.37898,1.44675 -5.10844,2.07095 -1.79206,0.68862 -3.59102,1.36136 -5.4253,1.93098 -2.00061,0.66426 -4.00886,1.30114 -6.0476,1.84048 -2.10728,0.56966 -4.22289,1.1063 -6.36196,1.54494 -2.16441,0.429 -4.33447,0.824 -6.52342,1.10876 -2.06704,0.28453 -4.14196,0.489 -6.23081,0.50023 -2.00398,0.0554 -4.00747,0.0193 -6.01006,-0.0769 -2.19371,-0.12925 -4.3773,-0.38398 -6.55912,-0.64197 -2.53461,-0.31673 -5.06627,-0.66175 -7.58288,-1.10159 -2.53122,-0.45999 -5.03707,-1.03356 -7.49254,-1.80933 -2.75556,-0.84554 -5.4846,-1.77068 -8.19692,-2.74616 -2.23932,-0.75664 -4.48212,-1.50294 -6.76863,-2.10723 -2.18133,-0.57483 -4.34325,-1.22868 -6.55127,-1.69682 -2.3138,-0.50194 -4.643,-0.92053 -6.99197,-1.22213 -2.33572,-0.33359 -4.67776,-0.58093 -7.03961,-0.61984 -2.36368,-0.10349 -4.73328,-0.18357 -7.09391,0.0361 -2.47438,0.21907 -4.93459,0.56786 -7.3825,0.98941 -2.4154,0.42428 -4.86045,0.82085 -7.16816,1.67733 -1.30277,0.6281 -2.55084,1.3519 -3.68251,2.26734 -1.35993,1.0784 -2.62854,2.25993 -3.88232,3.45909 -1.36248,1.35632 -2.70435,2.73473 -3.97569,4.17756 -1.24229,1.44763 -2.50532,2.88112 -3.62714,4.42642 -1.09815,1.53968 -2.17823,3.09366 -3.1665,4.70702 -0.86048,1.33378 -1.70533,2.67745 -2.60463,3.9857 -0.7601,1.15604 -1.52404,2.30938 -2.37711,3.39977 -0.81327,1.01953 -1.6529,2.01579 -2.50678,3.00116 -0.5278,0.63016 -1.07049,1.24899 -1.61749,1.86217 0,0 -0.70398,0.30335 -0.70398,0.30335 z"
       inkscape:connector-curvature="0" />
    <path
       inkscape:connector-curvature="0"
       d="m 275.39913,816.56852 c 0.70966,0.31312 1.38642,0.693 2.06646,1.06498 1.38082,0.75313 2.77529,1.48195 4.19362,2.16194 1.47088,0.71427 3.02905,1.20903 4.57294,1.73401 1.50305,0.5276 3.03989,0.94499 4.58908,1.31113 1.5674,0.3682 3.16035,0.60575 4.75439,0.82232 1.573,0.19903 3.15884,0.13011 4.73854,0.0852 1.48126,-0.0627 2.94577,-0.27459 4.40895,-0.499 1.33912,-0.15631 2.63689,-0.51864 3.93696,-0.85934 1.21906,-0.38626 2.44617,-0.74501 3.66879,-1.11956 1.21629,-0.40548 2.40714,-0.87832 3.60891,-1.3233 1.20716,-0.42104 2.35582,-0.9674 3.46156,-1.60596 0.6255,-0.34722 1.38975,-0.97631 2.25278,-1.64506 0.89885,-0.69556 1.63151,-1.57057 2.40267,-2.39826 0.52594,-0.54029 0.96102,-1.15218 1.37083,-1.78185 0,0 0.70117,-0.30798 0.70117,-0.30798 l 0,0 c -0.4071,0.63412 -0.8389,1.25131 -1.36547,1.79435 -0.77433,0.82681 -1.50219,1.70807 -2.39805,2.40969 -1.13665,0.8786 -2.26575,1.76368 -3.55914,2.41082 -1.11005,0.6327 -2.26122,1.17552 -3.46944,1.59604 -1.20139,0.44717 -2.39386,0.91736 -3.61159,1.31978 -1.22286,0.37499 -2.44993,0.73531 -3.67072,1.11707 -1.30108,0.34154 -2.60175,0.69563 -3.94169,0.8529 -1.46472,0.22426 -2.93166,0.43154 -4.41446,0.49129 -1.5823,0.0442 -3.17083,0.10929 -4.74585,-0.0955 -1.59563,-0.21808 -3.19001,-0.45782 -4.75868,-0.82838 -1.55056,-0.36844 -3.08852,-0.78855 -4.59316,-1.31714 -1.54657,-0.52495 -3.10549,-1.02517 -4.57799,-1.74167 -1.41878,-0.68195 -2.81441,-1.4112 -4.19626,-2.16505 -0.67787,-0.37044 -1.35275,-0.74894 -2.06199,-1.05692 0,0 0.63684,-0.42666 0.63684,-0.42666 z"
       id="path3844"
       style="fill:none;stroke:#000000;stroke-width:5.15294743;stroke-linecap:round;stroke-linejoin:round;stroke-miterlimit:4;stroke-opacity:1;stroke-dasharray:none" />
    <path
       inkscape:connector-curvature="0"
       d="m 166.80418,815.60369 c 0.67475,0.38259 1.31009,0.82829 1.94949,1.26647 1.29849,0.88755 2.61303,1.75228 3.95617,2.57082 1.392,0.85791 2.89282,1.50615 4.37642,2.18301 1.4427,0.67538 2.93005,1.2445 4.43482,1.76385 1.52267,0.52324 3.08385,0.91903 4.64819,1.29406 1.5452,0.35549 3.12997,0.44562 4.70623,0.55909 1.4801,0.0859 2.95846,0.0217 4.43676,-0.0552 1.34803,-0.0215 2.67556,-0.25213 4.00319,-0.46097 1.25159,-0.26231 2.50846,-0.49645 3.76243,-0.74675 1.25077,-0.28169 2.48294,-0.63298 3.72324,-0.95544 1.24323,-0.2981 2.4408,-0.72674 3.60491,-1.25144 0.65711,-0.28285 1.48049,-0.83231 2.40611,-1.41131 0.96396,-0.6021 1.78051,-1.39939 2.63064,-2.14575 0.57739,-0.48493 1.07154,-1.05019 1.5423,-1.63569 0,0 0.72848,-0.23624 0.72848,-0.23624 l 0,0 c -0.46854,0.59018 -0.95993,1.16106 -1.5382,1.64866 -0.85322,0.74516 -1.66563,1.54915 -2.62721,2.15758 -1.21889,0.76041 -2.4309,1.52804 -3.78256,2.04248 -1.16781,0.51841 -2.36753,0.94329 -3.61177,1.24077 -1.2401,0.32467 -2.47365,0.67314 -3.72554,0.95168 -1.25425,0.25069 -2.51122,0.4864 -3.7641,0.74406 -1.32873,0.20956 -2.65832,0.43174 -4.00725,0.45409 -1.47982,0.0764 -2.96013,0.13591 -4.44148,0.047 -1.57877,-0.11444 -3.16584,-0.2087 -4.71245,-0.57009 -1.56579,-0.37668 -3.12816,-0.77479 -4.65187,-1.3005 -1.5059,-0.52178 -2.9941,-1.09373 -4.43827,-1.77025 -1.48626,-0.67712 -2.98728,-1.33086 -4.38068,-2.19114 -1.34339,-0.82052 -2.65902,-1.68581 -3.95849,-2.57418 -0.63738,-0.43643 -1.271,-0.88057 -1.94586,-1.25798 0,0 0.67635,-0.36079 0.67635,-0.36079 z"
       id="path5570"
       style="fill:none;stroke:#000000;stroke-width:5.15294743;stroke-linecap:round;stroke-linejoin:round;stroke-miterlimit:4;stroke-opacity:1;stroke-dasharray:none" />
    <path
       style="fill:none;stroke:#000000;stroke-width:3.86471033;stroke-linecap:round;stroke-linejoin:round;stroke-miterlimit:4;stroke-opacity:1;stroke-dasharray:none"
       id="path3848"
       d="m 229.36821,854.17848 c 0.79757,0.64172 1.60132,1.27437 2.42208,1.88682 1.13779,0.85361 2.3324,1.61964 3.56683,2.32505 1.36529,0.75399 2.73888,1.48424 4.16837,2.10943 1.29433,0.61955 2.62706,1.15101 3.94675,1.71271 1.36647,0.62052 2.81518,0.9843 4.27478,1.30434 1.50049,0.34234 3.0333,0.48167 4.56963,0.4547 1.2682,-0.0247 2.51913,-0.25144 3.73758,-0.5922 0.18873,-0.0558 0.37898,-0.10628 0.56597,-0.16747 0.74355,-0.24324 1.42328,-0.59517 2.11062,-0.96311 0.0528,-0.0281 -0.10628,0.055 -0.15952,0.0824 0.98208,-0.56698 1.88018,-1.26666 2.78802,-1.94357 0.94638,-0.6524 1.80368,-1.41968 2.64018,-2.20488 0.87037,-0.75709 1.62998,-1.62721 2.42253,-2.46235 0.65062,-0.68447 1.28866,-1.3732 1.85774,-2.12757 0,0 0.70329,-0.3031 0.70329,-0.3031 l 0,0 c -0.56543,0.75944 -1.20169,1.45075 -1.85426,2.13585 -0.79515,0.83336 -1.54907,1.70984 -2.42094,2.46622 -0.83388,0.78892 -1.6903,1.55972 -2.63687,2.21292 -0.90585,0.68029 -1.80661,1.37811 -2.78511,1.95114 -1.22408,0.7146 -2.44569,1.4536 -3.83892,1.78998 -1.22374,0.33312 -2.47745,0.55731 -3.74909,0.57651 -1.5402,0.0193 -3.07603,-0.12346 -4.57973,-0.46928 -1.46281,-0.32301 -2.91354,-0.69325 -4.28296,-1.31598 -1.31977,-0.56208 -2.65241,-1.09421 -3.94711,-1.71344 -1.43048,-0.62845 -2.80587,-1.36064 -4.17279,-2.1163 -1.23594,-0.70842 -2.43237,-1.47696 -3.57213,-2.33269 -0.82078,-0.61264 -1.62338,-1.24702 -2.42286,-1.88652 0,0 0.64784,-0.40976 0.64784,-0.40976 z"
       inkscape:connector-curvature="0" />
    <path
       style="fill:none;stroke:#000000;stroke-width:0.88015634;stroke-linecap:round;stroke-linejoin:round;stroke-miterlimit:4;stroke-opacity:1;stroke-dasharray:none"
       id="path3854"
       d="m 211.79087,675.24874 c -0.45138,-0.57193 -0.7665,-1.2367 -1.0657,-1.91533 -0.4468,-1.10195 -0.82821,-2.2353 -1.15127,-3.39033 -0.34336,-1.30668 -0.57763,-2.6475 -0.70475,-4.00359 -0.1211,-1.42438 -0.0376,-2.85969 0.11787,-4.28051 0.16725,-1.45478 0.50842,-2.87893 0.92549,-4.27179 0.3886,-1.40862 1.0153,-2.71058 1.68946,-3.97623 0.72792,-1.38576 1.71005,-2.55601 2.7497,-3.65911 1.12952,-1.19226 2.38841,-2.21486 3.68622,-3.1662 1.36942,-1.09181 2.87762,-1.92268 4.38029,-2.75453 1.80943,-1.09219 3.71486,-1.94056 5.63337,-2.75204 1.7555,-0.73876 3.5606,-1.30973 5.35883,-1.89697 1.77957,-0.61688 3.61067,-0.96968 5.44718,-1.27147 1.84014,-0.29217 3.69037,-0.4794 5.54169,-0.63439 1.71145,-0.13892 3.42547,-0.21106 5.13947,-0.26231 1.72561,-0.12925 3.42177,0.19903 5.11088,0.50668 1.71632,0.28627 3.42029,0.63736 5.12203,1.00779 1.62795,0.31523 3.2355,0.73327 4.85021,1.11596 1.54701,0.3107 3.05042,0.80759 4.55504,1.29474 1.46232,0.51478 2.93108,1.00337 4.36053,1.62017 1.29904,0.53028 2.55621,1.16184 3.7962,1.83744 1.28572,0.7423 2.51502,1.58874 3.70205,2.50686 1.18975,0.83832 2.31178,1.77448 3.40378,2.7585 0.99834,0.89758 1.91039,1.88873 2.74154,2.97379 0.84499,1.01247 1.52988,2.16542 2.20632,3.31867 0.72542,1.06303 1.27099,2.24327 1.79095,3.44032 0.55898,1.27113 0.94107,2.62133 1.26189,3.98888 0.31081,1.42438 0.52723,2.87468 0.63503,4.33799 0.0895,1.33263 -0.0285,2.66841 -0.21384,3.98851 -0.15824,1.19548 -0.60137,2.28739 -1.03643,3.38535 -0.41518,1.05604 -0.9747,2.01807 -1.60177,2.93439 -0.66832,0.93546 -1.47903,1.73652 -2.32431,2.47033 -0.14943,0.11465 -0.29889,0.22924 -0.44837,0.34387 0,0 -0.71147,0.25872 -0.71147,0.25872 l 0,0 c 0.14987,-0.11315 0.2998,-0.22609 0.44968,-0.33913 0.84749,-0.72521 1.65738,-1.52351 2.33049,-2.44992 0.63014,-0.90873 1.19074,-1.86516 1.60795,-2.91578 0.43257,-1.09296 0.88343,-2.17544 1.04356,-3.36547 0.18658,-1.31398 0.308,-2.64362 0.22076,-3.97074 -0.10499,-1.45903 -0.32131,-2.90476 -0.62977,-4.32504 -0.31886,-1.36271 -0.69887,-2.70815 -1.25586,-3.97453 -0.51869,-1.19398 -1.06342,-2.37059 -1.78683,-3.431 -0.67512,-1.15023 -1.35888,-2.29968 -2.20207,-3.30946 -0.82952,-1.0803 -1.73983,-2.06672 -2.73523,-2.96063 -1.09079,-0.98282 -2.21418,-1.91393 -3.40114,-2.75328 -1.18567,-0.91401 -2.41233,-1.75855 -3.69672,-2.49609 -1.23864,-0.67426 -2.49605,-1.30073 -3.79291,-1.83138 -1.42917,-0.61238 -2.89609,-1.10183 -4.35736,-1.61418 -1.50333,-0.48693 -3.00674,-0.97818 -4.5522,-1.28963 -1.61426,-0.38332 -3.22203,-0.79873 -4.84948,-1.11482 -1.70122,-0.37026 -3.40526,-0.718 -5.12078,-1.00566 -1.68686,-0.30596 -3.38072,-0.62458 -5.10357,-0.49346 -1.71333,0.0522 -3.42673,0.12539 -5.13742,0.26561 -1.8504,0.15631 -3.69967,0.34501 -5.53871,0.63927 -1.83499,0.30423 -3.66368,0.6632 -5.44156,1.28113 -1.79741,0.58812 -3.60169,1.15999 -5.35548,1.90227 -1.45508,0.61674 -2.91931,1.22735 -4.30213,2.0326 -1.50288,0.82924 -3.01383,1.65395 -4.38282,2.74496 -1.29978,0.94468 -2.55843,1.96533 -3.69028,3.15195 -1.041,1.09556 -2.02601,2.25802 -2.75637,3.63748 -0.67644,1.25908 -1.30512,2.55621 -1.69511,3.95968 -0.42007,1.387 -0.761,2.80683 -0.93103,4.25644 -0.15845,1.41474 -0.2421,2.84466 -0.12453,4.26353 0.12389,1.35123 0.35794,2.68685 0.69876,3.98885 0.32142,1.15121 0.70151,2.28067 1.14664,3.37887 0.29821,0.67605 0.61404,1.33573 1.06245,1.90655 0,0 -0.66928,0.37679 -0.66928,0.37679 z"
       inkscape:connector-curvature="0" />
    <path
       style="fill:#666666;fill-opacity:1;fill-rule:nonzero;stroke:none"
       d="m 284.96454,679.21864 c -6.98872,-1.56233 -9.45651,-1.97813 -15.00066,-2.5275 -1.34431,-0.13312 -3.86758,-0.38933 -5.60728,-0.56914 -7.58158,-0.78366 -12.29154,-0.95407 -30.57645,-1.1063 -12.68102,-0.10563 -16.9319,-0.0331 -20.60797,0.35165 -0.5668,0.0593 -0.57269,0.0575 -0.40736,-0.12861 0.23512,-0.26463 0.21041,-0.47375 -0.11573,-0.9822 -0.71884,-1.12023 -1.62434,-3.52249 -2.07544,-5.50605 -0.82073,-3.60897 -0.76139,-6.70027 0.19904,-10.36352 0.4684,-1.78668 0.84394,-2.79331 1.59651,-4.27916 0.87602,-1.72961 1.60263,-2.73374 3.08795,-4.26733 1.24705,-1.28757 3.46452,-3.11021 4.99988,-4.1096 1.04998,-0.68345 3.75341,-2.19689 4.74462,-2.65617 2.5827,-1.19662 6.91208,-2.78397 9.34547,-3.42646 3.3962,-0.89672 8.20532,-1.4775 13.94632,-1.6843 1.97098,-0.0711 2.83936,0.0107 5.79898,0.54499 9.13985,1.65023 15.66814,3.53305 20.5135,5.91625 1.94482,0.95658 3.27416,1.7975 5.55796,3.51592 3.77048,2.83706 5.53159,4.71975 7.63601,8.16315 2.27015,3.71456 3.28045,6.60511 3.7753,10.80133 0.24183,2.0508 0.10435,4.57953 -0.33421,6.14658 -0.69009,2.46592 -2.35771,5.39297 -3.69657,6.48836 l -0.28756,0.23525 -2.49214,-0.55712 0,0 z"
       id="path4020"
       inkscape:connector-curvature="0" />
    <path
       style="fill:#666666;fill-opacity:1;fill-rule:nonzero;stroke:#666666;stroke-width:0.02819517;stroke-linecap:round;stroke-linejoin:round;stroke-miterlimit:4;stroke-opacity:1;stroke-dasharray:none"
       d="m 133.81009,762.12613 c 0.2689,-8.55697 2.05515,-18.61503 4.60882,-25.95158 1.0594,-3.04354 3.38725,-7.86797 5.76271,-11.94316 3.91021,-6.70802 9.50481,-13.42948 16.58521,-19.9258 6.21353,-5.70096 11.72427,-9.86222 16.40409,-12.38713 1.75011,-0.94423 2.58384,-1.54725 2.58384,-1.86884 0,-0.26113 -0.11895,-0.51545 -0.26418,-0.56515 -0.14535,-0.0496 -0.18744,-0.38246 -0.0938,-0.73947 0.13934,-0.53017 1.3175,-1.20753 6.43188,-3.69765 16.79932,-8.17934 19.99754,-8.71726 50.18082,-8.4401 9.54298,0.0876 19.11984,0.28857 21.28193,0.44653 5.26447,0.38464 13.84382,1.27443 17.35088,1.79949 3.80111,0.5691 11.46434,2.23067 11.64722,2.52538 0.0803,0.12925 0.57295,0.23806 1.09483,0.24158 1.23791,0.009 8.47437,1.88016 13.96202,3.61149 5.83091,1.83962 9.91176,3.49623 16.46622,6.68447 11.05548,5.37759 16.05335,8.90002 22.99965,16.2098 3.5808,3.76817 5.3208,5.93312 8.04156,10.0055 3.2637,4.88503 5.97568,10.65545 7.38524,15.71397 0.57664,2.0694 1.76165,10.45134 2.03284,14.37896 0.0928,1.34198 0.23564,2.92795 0.31772,3.52438 l 0.14923,1.08444 -0.87639,-1.62664 c -1.79587,-3.33331 -4.95291,-7.40511 -9.20568,-11.87308 -6.95553,-7.30748 -15.61555,-13.00082 -24.19186,-15.90444 -4.79149,-1.62221 -7.03646,-2.00222 -10.90089,-1.84521 -5.074,0.20612 -7.39304,0.89887 -14.09496,4.21022 -13.81587,6.82626 -25.79796,11.49039 -35.78175,13.92833 -10.93322,2.66981 -18.44944,2.98547 -30.79558,1.29335 -7.46943,-1.02374 -8.34142,-1.23916 -18.57086,-4.58767 -14.84126,-4.85818 -22.07634,-6.27283 -32.26178,-6.30809 -4.32002,-0.015 -6.22118,0.10392 -9.3532,0.58499 -10.2724,1.57768 -12.54537,2.62804 -18.79111,8.68357 -4.34144,4.20923 -6.95194,7.45185 -11.53983,14.33409 -2.11528,3.17312 -4.83868,6.94999 -6.05196,8.39305 -1.21326,1.44304 -2.30517,2.99477 -2.42644,3.44831 -0.12453,0.46613 -0.16232,-1.02842 -0.0865,-3.43789 l 0,0 z"
       id="path4024"
       inkscape:connector-curvature="0" />
  </g>
  <g
     inkscape:groupmode="layer"
     id="layer6"
     inkscape:label="Layer#4"
     style="display:inline" />
  <g
     inkscape:groupmode="layer"
     id="layer5"
     inkscape:label="Layer#3"
     transform="translate(0,-552.36218)">
    <path
       inkscape:connector-curvature="0"
       d="m 141.82174,803.04778 c -1.14698,-0.69536 -2.3603,-1.26994 -3.60968,-1.75399 -1.20869,-0.48363 -2.4402,-0.70478 -3.73138,-0.55581 -1.31284,0.31596 -1.27597,0.3184 -2.08271,1.04117 -0.76899,0.7463 -1.26999,1.68817 -1.70642,2.65325 -0.4724,1.09852 -0.77114,2.25785 -1.03632,3.42036 -0.29029,1.27956 -0.47579,2.57465 -0.56109,3.88287 -0.0247,1.28474 0.0507,2.56746 0.19409,3.84343 0.17799,1.34471 0.5954,2.63505 1.06677,3.90124 0.59664,1.5251 1.31149,2.99283 2.08801,4.43263 0.74029,1.39453 1.6491,2.68649 2.54419,3.9834 0.81399,1.15112 1.68452,2.25933 2.54746,3.37355 0.94948,1.07297 1.91608,2.12919 2.86813,3.19993 0.92537,1.01625 1.66359,2.17811 2.40774,3.3281 0.725,1.11825 1.25549,2.33929 1.71836,3.58413 0.48495,1.32497 0.78979,2.70221 1.05936,4.08386 0.28794,1.57861 0.24695,3.18006 0.16575,4.77399 -0.10971,1.71978 -0.43435,3.41308 -0.714,5.11039 -0.26287,1.55604 -0.51904,3.10942 -0.40498,4.6894 0.18958,1.50026 0.8267,2.89362 1.5509,4.20524 0.68034,1.15967 1.49883,2.20599 2.47235,3.13022 0.71239,0.65067 1.53368,1.11995 2.4878,1.27759 0.0427,0.28291 1.38397,-0.38899 1.24323,-0.33986 -0.13226,0.0462 -0.23062,0.21406 -0.36987,0.19924 -0.11552,-0.0129 0.18593,-0.13934 0.2789,-0.2089 0.63864,-0.52498 1.01414,-1.2523 1.3406,-1.99462 0.37548,-0.88784 0.49977,-1.84948 0.62205,-2.79778 0.0792,-0.70908 0.0417,-0.35134 0.11229,-1.07325 0,0 0.68573,-0.34106 0.68573,-0.34106 l 0,0 c -0.07,0.7232 -0.0328,0.36477 -0.11122,1.07531 -0.12109,0.95382 -0.24275,1.92177 -0.61264,2.81734 -0.32324,0.75033 -0.694,1.48806 -1.3251,2.0303 -0.7258,0.56472 -1.5393,1.13811 -2.49152,1.0728 -0.96201,-0.17842 -1.79286,-0.65352 -2.51212,-1.3154 -0.97711,-0.93137 -1.80016,-1.9841 -2.48417,-3.15042 -0.72945,-1.32098 -1.37069,-2.72415 -1.56667,-4.23414 -0.12131,-1.58539 0.13204,-3.14407 0.3969,-4.70569 0.27895,-1.69506 0.6053,-3.38559 0.71789,-5.10277 0.0822,-1.58816 0.12711,-3.18381 -0.15738,-4.75731 -0.26797,-1.37783 -0.57066,-2.75139 -1.05349,-4.07282 -0.46018,-1.23991 -0.98787,-2.45611 -1.71007,-3.56958 -0.74214,-1.1467 -1.47832,-2.30526 -2.40171,-3.31813 -0.95286,-1.07227 -1.92194,-2.1286 -2.87083,-3.20432 -0.86396,-1.1152 -1.73483,-2.22491 -2.54951,-3.37726 -0.89665,-1.29919 -1.80654,-2.5938 -2.5483,-3.99068 -0.77818,-1.44291 -1.49468,-2.91369 -2.09328,-4.44178 -0.47424,-1.27157 -0.89425,-2.56732 -1.07585,-3.91759 -0.14514,-1.28003 -0.22149,-2.56651 -0.20011,-3.8555 0.0831,-1.31183 0.26551,-2.6105 0.55564,-3.89378 0.26388,-1.16661 0.56107,-2.33003 1.02975,-3.4341 0.43365,-0.97227 0.93097,-1.92239 1.69382,-2.68211 0.95677,-0.881 2.11202,-1.56711 3.40636,-1.78768 1.2989,-0.13312 2.539,0.0988 3.75235,0.58593 1.2515,0.48927 2.46753,1.0666 3.61765,1.76428 0,0 -0.64356,0.41641 -0.64356,0.41641 z"
       id="path3891"
       style="fill:none;stroke:#000000;stroke-width:0.85882455;stroke-linecap:round;stroke-linejoin:round;stroke-miterlimit:4;stroke-opacity:1;stroke-dasharray:none" />
    <path
       style="fill:none;stroke:#000000;stroke-width:0.85882455;stroke-linecap:round;stroke-linejoin:round;stroke-miterlimit:4;stroke-opacity:1;stroke-dasharray:none"
       id="path3863"
       d="m 354.03722,799.44094 c 1.10437,-0.8087 2.28248,-1.50415 3.50221,-2.11336 1.17903,-0.60461 2.397,-0.95074 3.6973,-0.93519 1.33221,0.17928 1.29549,0.1855 2.14652,0.82093 0.81473,0.66269 1.37344,1.54723 1.86902,2.46145 0.53971,1.04315 0.9095,2.16454 1.24592,3.29252 0.36869,1.24173 0.63355,2.50964 0.79903,3.8009 0.10349,1.27411 0.10671,2.55651 0.0414,3.83916 -0.0956,1.35452 -0.43392,2.67958 -0.8277,3.98617 -0.50318,1.57674 -1.12808,3.10858 -1.81639,4.61902 -0.65483,1.46172 -1.48445,2.8388 -2.30008,4.2194 -0.74344,1.22741 -1.54606,2.41798 -2.34073,3.61374 -0.88373,1.16365 -1.7856,2.31241 -2.67204,3.4741 -0.86309,1.10481 -1.53012,2.33512 -2.2038,3.55424 -0.65647,1.18561 -1.11214,2.45341 -1.49872,3.73791 -0.40377,1.36641 -0.62421,2.76625 -0.8091,4.16689 -0.1913,1.59823 -0.0522,3.1854 0.12689,4.76095 0.21512,1.69771 0.6435,3.34706 1.02718,5.005 0.35822,1.5193 0.70956,3.03661 0.69234,4.61837 -0.0977,1.51029 -0.6494,2.96024 -1.29322,4.33792 -0.60927,1.2222 -1.36364,2.34592 -2.28052,3.36423 -0.67252,0.71968 -1.46507,1.27029 -2.40952,1.52482 -0.0253,0.28552 -1.4078,-0.24452 -1.26406,-0.21019 0.13505,0.0324 0.24374,0.18915 0.38209,0.15995 0.11466,-0.0247 -0.19452,-0.11937 -0.2917,-0.17906 -0.67082,-0.45614 -1.09088,-1.14035 -1.46283,-1.84452 -0.42989,-0.84371 -0.61312,-1.78657 -0.79349,-2.71636 -0.1226,-0.6965 -0.0631,-0.34486 -0.17799,-1.05498 0,0 -0.70664,-0.26855 -0.70664,-0.26855 l 0,0 c 0.11422,0.71147 0.0552,0.3591 0.17713,1.05715 0.17949,0.93539 0.36051,1.88478 0.78529,2.73675 0.36923,0.71244 0.78518,1.40749 1.44952,1.88156 0.7604,0.48669 1.60903,0.97302 2.55726,0.8104 0.95108,-0.276 1.75282,-0.83338 2.4315,-1.56488 0.92004,-1.02578 1.6786,-2.15636 2.29113,-3.38553 0.6485,-1.38752 1.20375,-2.84767 1.3072,-4.36826 0.024,-1.58786 -0.3247,-3.11075 -0.68526,-4.63538 -0.38282,-1.65579 -0.81277,-3.3022 -1.03059,-4.99703 -0.17949,-1.56973 -0.32221,-3.15074 -0.13419,-4.74354 0.18357,-1.39666 0.40206,-2.79264 0.80392,-4.15532 0.3842,-1.27932 0.83736,-2.54201 1.49133,-3.72259 0.67186,-1.21565 1.33704,-2.44246 2.19836,-3.54371 0.88716,-1.1633 1.7915,-2.31242 2.67448,-3.47875 0.79562,-1.19684 1.59849,-2.38893 2.34255,-3.61763 0.81705,-1.38301 1.64759,-2.76286 2.30376,-4.22707 0.68976,-1.51368 1.31613,-3.04872 1.82109,-4.62863 0.39631,-1.31224 0.73692,-2.64295 0.83577,-4.00335 0.0668,-1.28688 0.0642,-2.5731 -0.0361,-3.85181 -0.16339,-1.29506 -0.42546,-2.56683 -0.79424,-3.81227 -0.33535,-1.13219 -0.70385,-2.25781 -1.24019,-3.30684 -0.49322,-0.92167 -1.04877,-1.81479 -1.85817,-2.49145 -1.01078,-0.77728 -2.20806,-1.34054 -3.5159,-1.42692 -1.30707,10e-4 -2.53298,0.35869 -3.71646,0.96729 -1.22153,0.6146 -2.40217,1.31308 -3.50954,2.12439 0,0 0.66909,0.34774 0.66909,0.34774 z"
       inkscape:connector-curvature="0" />
    <path
       style="fill:#ffe8c6;fill-opacity:1;fill-rule:nonzero;stroke:none"
       d="m 347.56731,863.8753 c -0.41865,-0.50447 -0.9989,-1.86421 -1.28939,-3.02165 -0.2905,-1.15743 -0.84799,-2.10442 -1.23884,-2.10442 -0.40974,0 -0.37734,-0.62284 0.0764,-1.47088 2.20248,-4.11534 3.25834,-11.23944 3.87338,-26.13421 0.63158,-15.29528 1.36766,-20.14854 4.25791,-28.07403 0.88394,-2.42392 1.83193,-3.46042 4.1005,-4.4834 3.89612,-1.7569 5.38549,-1.35349 7.08236,1.9184 3.67559,7.08719 2.27955,14.70919 -4.55843,24.88798 -6.65445,9.9056 -7.35598,11.58342 -7.37415,17.63658 -0.009,2.95221 0.277,7.48367 0.63521,10.06991 0.57937,4.18297 0.4575,5.04708 -1.10337,7.82428 -1.93453,3.44204 -3.30315,4.34739 -4.4617,2.95144 l 0,0 z"
       id="path3961"
       inkscape:connector-curvature="0" />
    <path
       style="fill:#ffe8c6;fill-opacity:1;fill-rule:nonzero;stroke:none"
       d="m 148.5312,865.59166 c -2.41862,-2.87436 -2.284,-2.08044 -2.33044,-13.7437 -0.0438,-11.01325 -0.61153,-12.60759 -7.2649,-20.40314 -5.94032,-6.96009 -8.78775,-13.15953 -8.73268,-19.01285 0.0481,-5.11679 1.79608,-9.97686 3.87519,-10.77467 0.66902,-0.25674 2.71773,0.14794 4.55265,0.89919 3.6406,1.49062 3.83806,1.85567 8.71595,16.1131 3.88442,11.35366 4.99245,19.0717 6.1716,42.989 0.10113,2.05121 -1.51419,6.29233 -2.39657,6.29233 -0.3331,0 -1.49895,-1.06166 -2.5908,-2.35926 z"
       id="path3963"
       inkscape:connector-curvature="0" />
    <path
       style="fill:#808080;stroke:none"
       id="path3975"
       d="m 177.87318,690.7817 c 0.11701,-0.19452 0.23886,-0.38602 0.3638,-0.57554 0.18787,-0.24717 0.35214,-0.51051 0.51686,-0.77333 0.16897,-0.28094 0.32983,-0.56648 0.49365,-0.85041 0.0273,-0.0481 0.0545,-0.0964 0.0818,-0.14449 0,0 0.17477,-0.0779 0.17477,-0.0779 l 0,0 c -0.0273,0.0483 -0.0545,0.0964 -0.0818,0.14471 -0.16446,0.28367 -0.32442,0.56987 -0.49337,0.85101 -0.16425,0.2631 -0.32786,0.52713 -0.51663,0.77374 -0.12517,0.18915 -0.24691,0.38061 -0.36399,0.5747 0,0 -0.1752,0.0777 -0.1752,0.0777 z"
       inkscape:connector-curvature="0" />
    <path
       style="fill:none;stroke:#000000;stroke-width:0.85882455;stroke-linecap:round;stroke-linejoin:round;stroke-miterlimit:4;stroke-dasharray:none;stroke-opacity:1"
       id="path3903"
       d="M 233.87488,881.10353 C 233.81584,881.92953 233.64134,882.73242 233.4451,883.53446 C 233.12848,884.82553 232.83729,886.12392 232.50168,887.41023 C 232.13894,888.75229 231.71573,890.07756 231.29248,891.40161 C 230.86092,892.72611 230.43662,894.05444 229.98404,895.37209 C 229.54355,896.68418 229.00294,897.95902 228.51296,899.25269 C 227.98203,900.55892 227.45053,901.8656 226.88085,903.15553 C 226.31065,904.40628 225.84766,905.70143 225.30467,906.9636 C 224.76254,908.24741 224.21188,909.52747 223.66064,910.80742 C 223.04996,912.16647 222.45999,913.53545 221.90873,914.91977 C 221.37439,916.26896 220.88089,917.63364 220.36213,918.98869 C 219.87443,920.24676 219.32547,921.48048 218.80086,922.72365 C 218.2303,924.04989 217.62811,925.36192 217.03372,926.67753 C 216.41523,928.03282 215.94812,929.44709 215.5378,930.87686 C 215.15085,932.29976 214.83725,933.74323 214.63575,935.20405 C 214.46441,936.50169 214.50006,937.81247 214.60655,939.11314 C 214.72077,940.27141 215.11908,941.36012 215.56214,942.42593 C 216.04669,943.49935 216.70101,944.47126 217.46023,945.3662 C 218.4213,946.44119 219.53283,947.36193 220.64608,948.27242 C 221.75148,949.10103 222.88968,949.88802 224.04596,950.64425 C 225.24097,951.38342 226.4865,952.03619 227.76656,952.61431 C 229.47177,953.31541 231.22004,953.91388 232.97086,954.49123 C 234.84997,955.07577 236.74509,955.61079 238.6476,956.11402 C 240.47572,956.63035 242.30167,957.1594 244.16946,957.51227 C 246.01177,957.78313 247.86627,957.86538 249.72039,957.70551 C 251.44186,957.53954 253.05958,956.93038 254.68049,956.3707 C 255.88874,955.93764 257.04998,955.38344 258.01953,954.76309 C 258.88426,954.19803 259.68005,953.5333 260.103,952.57395 C 260.31233,951.88302 260.033,951.30166 259.62261,950.75682 C 259.03157,950.08376 258.29038,949.60078 257.49406,949.20821 C 256.43483,948.77468 255.34633,948.41015 254.26065,948.04715 C 253.03006,947.66396 251.80591,947.25733 250.59783,946.8081 C 249.33147,946.32057 248.09135,945.7745 246.80955,945.32639 C 245.49549,944.89848 244.18017,944.47611 242.87525,944.02108 C 241.691,943.58006 240.57305,942.9932 239.56092,942.23797 C 239.56092,942.23797 240.20794,941.82836 240.20794,941.82836 L 240.20794,941.82836 C 241.21689,942.57596 242.33061,943.15676 243.50939,943.5921 C 244.81439,944.04691 246.13048,944.46722 247.44377,944.89752 C 248.72499,945.34793 249.96522,945.8951 251.2328,946.38036 C 252.44125,946.82695 253.66447,947.23382 254.8944,947.61731 C 255.98225,947.98263 257.07497,948.34479 258.13378,948.78709 C 258.93731,949.18953 259.68649,949.68151 260.28148,950.36578 C 260.70419,950.93086 260.99411,951.53593 260.79914,952.25388 C 260.39573,953.23256 259.60404,953.91232 258.73293,954.4853 C 257.26692,955.43297 255.72529,956.25672 254.07658,956.84091 C 252.45317,957.40151 250.82999,958.00221 249.10506,958.16051 C 247.24661,958.31253 245.38725,958.22772 243.54207,957.95032 C 241.67406,957.59187 239.8468,957.06352 238.01718,956.54758 C 236.1139,956.04282 234.2174,955.50823 232.33793,954.92096 C 230.5853,954.34177 228.83442,953.74352 227.12864,953.03758 C 225.84657,952.45575 224.59809,951.80083 223.40154,951.05763 C 222.24395,950.2989 221.10289,949.51155 219.99735,948.67892 C 218.88133,947.7647 217.76672,946.84063 216.80415,945.76089 C 216.04064,944.85932 215.38246,943.88043 214.89404,942.80022 C 214.44771,941.72742 214.04537,940.63199 213.92716,939.46637 C 213.81873,938.16094 213.77987,936.84528 213.94906,935.54234 C 214.14701,934.07804 214.46147,932.6317 214.84638,931.20528 C 215.25511,929.77233 215.7201,928.35451 216.33762,926.99585 C 216.93098,925.68028 217.53446,924.36933 218.10547,923.04378 C 218.62892,921.8007 219.17867,920.56794 219.66782,919.31103 C 220.18949,917.95694 220.67835,916.5901 221.21411,915.24127 C 221.76359,913.85577 222.35358,912.48616 222.96506,911.12699 C 223.51552,909.84672 224.06824,908.56752 224.60898,907.2831 C 225.15556,906.02222 225.61499,904.72548 226.18488,903.47439 C 226.75735,902.18673 227.28458,900.87919 227.81881,899.57539 C 228.30697,898.28157 228.84949,897.00813 229.2908,895.69685 C 229.74636,894.38077 230.16607,893.05111 230.60003,891.72792 C 231.02283,890.40477 231.4469,889.08088 231.81091,887.74023 C 232.14952,886.45515 232.43714,885.15607 232.75465,883.86568 C 232.95025,883.06831 233.12667,882.27224 233.19194,881.45157 C 233.19194,881.45157 233.87497,881.10355 233.87497,881.10355 L 233.87488,881.10353 z "
       inkscape:connector-curvature="0" />
    <path
       style="fill:none;stroke:#000000;stroke-width:0.85882455;stroke-linecap:round;stroke-linejoin:round;stroke-miterlimit:4;stroke-dasharray:none;stroke-opacity:1"
       id="path3917"
       d="M 234.07844,940.84092 C 233.68916,940.26944 233.47858,939.6063 233.28465,938.94949 C 232.99793,938.00772 232.89361,937.03648 232.83592,936.05869 C 232.78718,935.00828 232.85309,933.95044 232.97397,932.90656 C 233.12577,931.80175 233.26737,930.69709 233.47271,929.6008 C 233.71688,928.43001 233.84675,927.24021 234.05137,926.06302 C 234.2635,924.82494 234.52158,923.59663 234.77774,922.36718 C 235.05594,921.03754 235.25299,919.69338 235.42624,918.34667 C 235.56108,916.94089 235.72453,915.54689 236.01015,914.16345 C 236.26898,912.81844 236.56775,911.48344 236.87559,910.14902 C 237.11608,908.87554 237.53137,907.64864 237.92256,906.41655 C 238.17577,905.64599 238.4896,904.89972 238.80668,904.15406 C 238.80668,904.15406 239.50241,903.83415 239.50241,903.83415 L 239.50241,903.83415 C 239.18557,904.57813 238.86957,905.32155 238.61516,906.09002 C 238.2253,907.32087 237.80448,908.54465 237.56546,909.81698 C 237.2582,911.1511 236.95639,912.48494 236.69928,913.8299 C 236.41193,915.21151 236.24365,916.60294 236.11278,918.00783 C 235.94038,919.35624 235.74431,920.70222 235.46695,922.03365 C 235.21145,923.26259 234.95133,924.48974 234.73959,925.72726 C 234.53154,926.90409 234.40641,928.09493 234.16141,929.26586 C 233.95507,930.3606 233.81242,931.46342 233.66041,932.5669 C 233.53567,933.60623 233.47168,934.66073 233.51634,935.707 C 233.57217,936.67942 233.672,937.64554 233.95698,938.5823 C 234.14743,939.23058 234.35307,939.8861 234.73768,940.44971 C 234.73768,940.44971 234.07846,940.84092 234.07846,940.84092 L 234.07844,940.84092 z "
       inkscape:connector-curvature="0" />
    <path
       style="fill:none;stroke:#000000;stroke-width:0.85882455;stroke-linecap:round;stroke-linejoin:round;stroke-miterlimit:4;stroke-dasharray:none;stroke-opacity:1"
       id="path3919"
       d="M 240.30054,903.65753 C 241.09622,903.33747 241.89188,903.02406 242.70124,902.73795 C 244.4267,902.10705 246.12743,901.41398 247.86067,900.80426 C 250.09453,900.06009 252.27288,899.16949 254.43873,898.24979 C 256.49658,897.41016 258.51797,896.48154 260.52268,895.52262 C 261.93704,894.87221 263.30645,894.13083 264.66834,893.37929 C 266.03704,892.62589 267.32631,891.74396 268.61545,890.86472 C 269.821,890.05553 270.96406,889.1645 272.03941,888.19008 C 273.05006,887.25377 273.98396,886.2542 274.79699,885.14209 C 275.60991,884.09259 276.31713,882.97094 277.0353,881.85676 C 277.15167,881.67104 277.26817,881.48556 277.38461,881.29995 C 277.38461,881.29995 278.08517,880.99105 278.08517,880.99105 L 278.08517,880.99105 C 277.9688,881.17698 277.8526,881.3629 277.73632,881.54883 C 277.01583,882.6623 276.31541,883.78951 275.49966,884.83805 C 274.6906,885.95654 273.75936,886.96069 272.74809,887.90049 C 271.67458,888.87873 270.53471,889.77502 269.32804,890.58504 C 268.03817,891.46377 266.75255,892.3522 265.38275,893.10475 C 263.60013,894.13746 261.79731,895.13741 259.92443,895.99942 C 257.91804,896.95544 255.8972,897.88516 253.8386,898.72374 C 251.67209,899.64324 249.49138,900.52907 247.25751,901.27453 C 245.52501,901.88694 243.82406,902.5805 242.0974,903.20886 C 241.28843,903.49552 240.49461,903.81358 239.69799,904.13137 C 239.69799,904.13137 240.30054,903.65753 240.30054,903.65753 L 240.30054,903.65753 z "
       inkscape:connector-curvature="0" />
    <path
       style="fill:none;stroke:#000000;stroke-width:0.83286434;stroke-linecap:round;stroke-linejoin:round;stroke-miterlimit:4;stroke-dasharray:none;stroke-opacity:1"
       id="path3923"
       d="M 286.71866,878.54696 C 286.74163,879.4173 286.7646,880.28759 286.78779,881.1579 C 286.82472,882.55263 286.86187,883.94734 286.89879,885.34205 C 286.94796,887.19962 286.99734,889.05715 287.04673,890.91472 C 287.09997,892.91898 287.15322,894.92324 287.20647,896.92753 C 287.25134,898.93642 287.3003,900.94356 287.42785,902.94855 C 287.55152,904.90171 287.79725,906.84235 288.0035,908.78622 C 288.1538,910.62247 288.41202,912.44112 288.70819,914.25365 C 289.00667,916.08037 289.38093,917.88952 289.70165,919.71141 C 289.96722,921.4656 290.3646,923.18725 290.7456,924.91207 C 291.10916,926.59081 291.515,928.25665 291.86381,929.93969 C 292.25756,931.48364 292.54846,933.06012 292.95347,934.59961 C 293.36136,936.09791 293.81787,937.57954 294.31979,939.04014 C 294.7737,940.38985 295.23508,941.73616 295.68463,943.08784 C 296.14694,944.45754 296.54659,945.85122 296.96199,947.23953 C 297.30036,948.47544 297.73755,949.66837 298.38751,950.73147 C 298.85997,951.4757 299.53363,951.9175 300.24843,952.28557 C 301.03827,952.63574 301.87176,952.75142 302.70913,952.79013 C 303.63364,952.78885 304.53849,952.5954 305.44243,952.40343 C 306.42582,952.18219 307.3459,951.73226 308.27962,951.3334 C 309.37088,950.82875 310.47553,950.36413 311.56211,949.84611 C 312.79059,949.23696 314.07359,948.79359 315.3635,948.39078 C 316.71725,947.93878 318.10912,947.71759 319.51815,947.69262 C 320.89281,947.65591 322.23902,947.94963 323.567,948.33565 C 324.96117,948.75636 326.25817,949.46062 327.49397,950.30491 C 328.77478,951.15878 329.97535,952.15065 331.15613,953.1745 C 332.17369,954.09802 333.14091,955.09245 334.00908,956.20042 C 334.84656,957.22313 335.61929,958.308 336.30502,959.46992 C 336.9869,960.65531 337.48217,961.95654 337.92218,963.27797 C 338.36102,964.66106 338.78204,966.04944 339.14485,967.46113 C 339.51118,968.91426 339.77914,970.39526 340.02126,971.88041 C 340.30308,973.38816 340.39214,974.91766 340.39931,976.45328 C 340.42873,978.04518 340.25396,979.61822 340.00982,981.17826 C 339.76788,982.66469 339.3295,984.08497 338.85369,985.48771 C 338.35997,986.86198 337.76302,988.17235 337.05052,989.41046 C 336.33913,990.64016 335.55576,991.79462 334.63634,992.82527 C 333.81376,993.81904 332.87176,994.64699 331.86148,995.36922 C 330.62924,996.28657 329.2703,996.93084 327.90485,997.53483 C 326.54263,998.11044 325.13083,998.50294 323.7116,998.84492 C 322.1333,999.20471 320.53917,999.45948 318.95498,999.78282 C 317.37129,1000.1208 315.77757,1000.3894 314.18019,1000.6294 C 312.61816,1000.8601 311.05079,1001.0412 309.48234,1001.2075 C 307.92329,1001.3316 306.37518,1001.5711 304.82397,1001.7779 C 303.06864,1002.0089 301.30725,1002.1741 299.54548,1002.3302 C 297.81518,1002.4814 296.08311,1002.607 294.35069,1002.7248 C 292.64154,1002.8386 290.93132,1002.9307 289.22093,1003.0182 C 287.56741,1003.1232 285.90999,1003.0721 284.25701,1002.9572 C 282.5032,1002.8608 280.75558,1002.6578 279.0057,1002.4925 C 277.2376,1002.2738 275.47082,1002.0425 273.70055,1001.8495 C 272.07422,1001.674 270.44449,1001.5526 268.81408,1001.4491 C 267.28135,1001.3542 265.74743,1001.2965 264.21339,1001.2494 C 262.73811,1001.2059 261.26252,1001.1861 259.78701,1001.1728 C 258.34676,1001.1621 256.90654,1001.1642 255.4664,1001.1709 C 254.03912,1001.1794 252.6119,1001.1951 251.18477,1001.2149 C 249.64279,1001.2342 248.10101,1001.2664 246.55925,1001.2969 C 244.88647,1001.3317 243.2137,1001.3667 241.54105,1001.4072 C 239.74757,1001.4498 237.9541,1001.4944 236.16066,1001.5391 C 234.15902,1001.5893 232.15747,1001.6421 230.15589,1001.6945 C 228.16428,1001.7467 226.17264,1001.7991 224.18101,1001.8513 C 222.41363,1001.8981 220.64623,1001.9457 218.87884,1001.9919 C 217.19874,1002.0368 215.51867,1002.0821 213.83861,1002.1276 C 212.25045,1002.2083 210.66313,1002.1877 209.07411,1002.1362 C 207.31279,1002.0954 205.55267,1001.9816 203.79586,1001.8227 C 201.79461,1001.6433 199.79354,1001.477 197.80429,1001.1545 C 196.10373,1000.9437 194.47341,1000.3927 192.8688,999.73035 C 191.54915,999.17342 190.29872,998.444 189.0895,997.62243 C 187.96021,996.83162 186.97153,995.84093 186.00237,994.8159 C 185.10739,993.86578 184.25017,992.88623 183.53692,991.74811 C 182.81976,990.54204 182.16991,989.2818 181.54928,988.00744 C 180.93792,986.74001 180.48667,985.38761 180.08562,984.0185 C 179.68485,982.61275 179.3979,981.17079 179.13875,979.72427 C 178.87874,978.23831 178.68802,976.73871 178.51378,975.23742 C 178.34975,973.70556 178.18275,972.17234 178.10908,970.63142 C 178.06335,969.14834 178.13098,967.65939 178.25208,966.18376 C 178.33345,964.75491 178.68797,963.3897 179.09033,962.04691 C 179.51584,960.69742 180.17084,959.48255 180.93182,958.35596 C 181.69143,957.21765 182.63505,956.29255 183.65097,955.47345 C 184.9221,954.45582 186.33383,953.7441 187.76607,953.08866 C 189.086,952.49491 190.45084,952.05079 191.82436,951.65213 C 193.17963,951.26705 194.55452,950.98336 195.93255,950.72687 C 197.2508,950.49931 198.55375,950.17411 199.86624,949.90813 C 201.17198,949.64673 202.48693,949.45184 203.8035,949.27512 C 204.69322,949.15746 205.58511,949.06256 206.4772,948.97055 C 206.4772,948.97055 205.93287,949.458 205.93287,949.458 L 205.93287,949.458 C 205.04113,949.55033 204.14961,949.64587 203.26025,949.76426 C 201.94449,949.94182 200.63034,950.13806 199.32553,950.40091 C 198.0132,950.66824 196.70989,950.99244 195.3913,951.21874 C 194.01439,951.4768 192.64067,951.76204 191.28684,952.14939 C 189.91504,952.55039 188.552,952.9972 187.23435,953.59408 C 186.17602,954.0817 185.08864,954.5843 184.28766,955.16607 C 183.26944,955.97704 182.32185,956.8934 181.56016,958.02699 C 180.79566,959.14434 180.13853,960.35181 179.70879,961.69426 C 179.30452,963.03099 178.94569,964.39038 178.863,965.81429 C 178.73869,967.28602 178.6732,968.77191 178.71485,970.25148 C 178.78571,971.79066 178.95406,973.32186 179.11691,974.85198 C 179.2904,976.3516 179.4805,977.8495 179.73948,979.33389 C 179.99747,980.77747 180.28303,982.2166 180.68216,983.61966 C 181.08111,984.98438 181.53006,986.33249 182.13912,987.59578 C 182.75837,988.86751 183.40681,990.12521 184.12266,991.32864 C 184.83368,992.46175 185.68915,993.43613 186.5804,994.38269 C 187.54608,995.40406 188.53307,996.38911 189.65931,997.17515 C 190.86641,997.99207 192.11402,998.71799 193.43088,999.27086 C 195.03263,999.93009 196.66128,1000.4713 198.35776,1000.6819 C 200.34639,1001.0006 202.34646,1001.167 204.34671,1001.3463 C 206.10303,1001.5028 207.86239,1001.6163 209.62311,1001.6563 C 211.2114,1001.7079 212.79799,1001.7242 214.3854,1001.6456 C 216.06546,1001.6003 217.74555,1001.555 219.42563,1001.5099 C 221.19296,1001.4627 222.96029,1001.4154 224.72765,1001.3695 C 226.71922,1001.3169 228.71081,1001.2649 230.70236,1001.2128 C 232.70405,1001.1602 234.70569,1001.1078 236.70741,1001.0573 C 238.5009,1001.0127 240.29438,1000.968 242.08793,1000.9255 C 243.76066,1000.8862 245.43348,1000.8493 247.10632,1000.8153 C 248.64817,1000.784 250.19014,1000.7554 251.73218,1000.7335 C 253.15951,1000.7164 254.5867,1000.6975 256.01415,1000.69 C 257.45445,1000.6835 258.89482,1000.6814 260.33524,1000.6921 C 261.811,1000.705 263.28685,1000.7258 264.76242,1000.77 C 266.29682,1000.8177 267.83117,1000.8761 269.36428,1000.9717 C 270.99517,1001.0758 272.62543,1001.1984 274.25226,1001.3746 C 276.02225,1001.5684 277.78868,1001.8011 279.55685,1002.0169 C 281.30639,1002.1828 283.05382,1002.3834 284.80734,1002.48 C 286.45895,1002.5929 288.11483,1002.6404 289.76678,1002.5348 C 291.47702,1002.4467 293.18702,1002.3542 294.89593,1002.2405 C 296.62812,1002.1224 298.35989,1001.9966 300.08991,1001.8449 C 301.85119,1001.6884 303.61208,1001.522 305.36687,1001.29 C 306.9183,1001.0824 308.46701,1000.8462 310.0263,1000.7211 C 311.59423,1000.5543 313.16101,1000.3724 314.72248,1000.1406 C 316.31918,999.89937 317.91213,999.62894 319.49533,999.29123 C 321.07924,998.96881 322.67333,998.71515 324.2506,998.35129 C 325.66785,998.00654 327.07781,997.61159 328.43698,997.03111 C 329.41052,996.59747 330.33531,996.06426 331.29193,995.59346 C 331.32199,995.58057 331.2462,995.64692 331.22322,995.67354 C 332.23601,994.95863 333.18276,994.13919 334.00403,993.14538 C 334.92779,992.12232 335.71318,990.97373 336.42444,989.74596 C 337.14063,988.51419 337.73807,987.20845 338.234,985.8385 C 338.71121,984.4404 339.15144,983.02477 339.39629,981.54287 C 339.64144,979.98709 339.8224,978.41885 339.79172,976.83078 C 339.78528,975.29956 339.69982,973.77416 339.41974,972.27055 C 339.17845,970.78788 338.91183,969.30922 338.54683,967.85838 C 338.18518,966.44843 337.76489,965.06196 337.32689,963.68067 C 336.88947,962.36472 336.39713,961.06873 335.71812,959.88851 C 335.03396,958.72974 334.26243,957.64853 333.42729,956.62835 C 332.56125,955.52502 331.59653,954.53456 330.58175,953.61519 C 329.40292,952.59299 328.20276,951.60519 326.92406,950.75292 C 325.69149,949.91543 324.39821,949.21717 323.00861,948.80261 C 321.68383,948.42185 320.34106,948.13507 318.97076,948.17657 C 317.56489,948.2105 316.177,948.43705 314.82674,948.89021 C 313.53837,949.29558 312.25778,949.74305 311.03076,950.35335 C 309.94293,950.86858 308.83897,951.33627 307.74657,951.8386 C 306.81197,952.2395 305.88788,952.68293 304.90175,952.89792 C 303.99514,953.08986 303.08596,953.27754 302.15882,953.27047 C 301.31541,953.22646 300.47537,953.10193 299.68246,952.74133 C 298.95882,952.36285 298.27899,951.90709 297.80091,951.1513 C 297.14811,950.08149 296.70543,948.88328 296.36557,947.63989 C 295.94988,946.25261 295.55171,944.85928 295.08936,943.49057 C 294.64017,942.13899 294.17839,940.79317 293.72495,939.44357 C 293.22172,937.98123 292.76497,936.49742 292.35583,934.99731 C 291.94868,933.45692 291.6596,931.87814 291.26409,930.33314 C 290.91586,928.65029 290.51017,926.9849 290.14644,925.30652 C 289.76534,923.58048 289.36626,921.85791 289.10084,920.10246 C 288.78048,918.28014 288.40614,916.47059 288.10695,914.64366 C 287.81009,912.82969 287.54946,911.00978 287.40005,909.17174 C 287.19372,907.22666 286.94779,905.2849 286.82285,903.33064 C 286.6951,901.32464 286.64443,899.3166 286.5999,897.3067 C 286.54666,895.30241 286.49341,893.29811 286.44016,891.29387 C 286.39078,889.43639 286.3414,887.5789 286.29201,885.72135 C 286.25487,884.32672 286.21773,882.93206 286.1808,881.53739 C 286.15761,880.66721 286.13463,879.79702 286.11123,878.92684 C 286.11123,878.92684 286.71876,878.54797 286.71876,878.54797 L 286.71866,878.54696 z "
       inkscape:connector-curvature="0" />
    <path
       style="fill:none;stroke:#000000;stroke-width:0.85882455;stroke-linecap:round;stroke-linejoin:round;stroke-miterlimit:4;stroke-dasharray:none;stroke-opacity:1"
       id="path3931"
       d="M 269.89914,943.54203 C 269.15842,943.78285 268.40532,943.98418 267.65861,944.20655 C 266.45851,944.52904 265.26389,944.86849 264.06733,945.20412 C 262.82867,945.50215 261.60918,945.87069 260.37488,946.18564 C 259.08739,946.50891 257.77788,946.72883 256.46577,946.92314 C 255.55634,947.04574 256.01237,946.98712 255.09766,947.09941 C 255.09766,947.09941 255.71146,946.64181 255.71146,946.64181 L 255.71146,946.64181 C 256.62544,946.52844 256.16977,946.5877 257.07845,946.46403 C 258.38917,946.26801 259.69716,946.04598 260.98286,945.7202 C 262.21628,945.40311 263.43661,945.03819 264.67422,944.73724 C 265.87028,944.4003 267.06617,944.06549 268.26496,943.7387 C 269.01124,943.51781 269.76512,943.31917 270.50169,943.06822 C 270.50169,943.06822 269.89914,943.54203 269.89914,943.54203 L 269.89914,943.54203 z "
       inkscape:connector-curvature="0" />
    <path
       style="fill:none;stroke:#000000;stroke-width:0.85882455;stroke-linecap:round;stroke-linejoin:round;stroke-miterlimit:4;stroke-dasharray:none;stroke-opacity:1"
       id="path3933"
       d="M 248.55692,958.39422 C 249.47884,958.60442 250.39175,958.86522 251.31716,959.07126 C 252.58364,959.34574 253.86707,959.52798 255.15198,959.68997 C 256.50592,959.86303 257.86303,959.98073 259.22773,960.0005 C 260.51693,960.01553 261.80154,959.86674 263.08524,959.76418 C 264.35006,959.5995 265.61173,959.41427 266.87852,959.26462 C 268.21236,959.06322 269.54401,958.85593 270.86617,958.58804 C 272.09747,958.37913 273.28752,957.98821 274.40627,957.43736 C 274.35002,957.46613 274.18896,957.56425 274.23772,957.52389 C 274.97683,956.91374 275.60532,956.37856 276.18137,955.59828 C 276.85038,954.63953 277.28629,953.55455 277.66929,952.4577 C 278.06201,951.25535 278.35598,950.02191 278.54516,948.77174 C 278.72165,947.58108 278.40302,946.44194 278.10372,945.30329 C 277.7186,944.2009 277.4184,943.07245 277.07154,941.95842 C 276.68157,940.80066 276.38485,939.61645 276.13055,938.42256 C 276.08997,938.21257 276.04939,938.0024 276.00881,937.79233 C 276.00881,937.79233 276.6843,937.4318 276.6843,937.4318 L 276.6843,937.4318 C 276.72467,937.64135 276.76503,937.85107 276.80539,938.06073 C 277.0584,939.25253 277.35358,940.43478 277.74304,941.59031 C 278.09118,942.70509 278.38945,943.83534 278.77689,944.9382 C 279.0789,946.08563 279.40373,947.2338 279.23252,948.43428 C 279.04744,949.68885 278.75254,950.92595 278.36283,952.13307 C 277.98183,953.23567 277.54839,954.32664 276.88434,955.29438 C 276.06191,956.42827 275.09444,957.30955 273.80782,957.915 C 272.68192,958.45619 271.48964,958.84219 270.25591,959.05026 C 268.93264,959.31673 267.59953,959.52289 266.2645,959.72188 C 264.99742,959.87282 263.73559,960.06109 262.46949,960.2191 C 261.18447,960.32215 259.89836,960.46858 258.60765,960.4495 C 257.24139,960.42652 255.88252,960.30521 254.52701,960.1321 C 253.2406,959.96849 251.95567,959.78451 250.68796,959.50758 C 249.76316,959.30017 248.85164,959.03692 247.92804,958.83239 C 247.92804,958.83239 248.55698,958.39416 248.55698,958.39416 L 248.55692,958.39422 z "
       inkscape:connector-curvature="0" />
    <path
       style="fill:none;stroke:#000000;stroke-width:0.85882455;stroke-linecap:round;stroke-linejoin:round;stroke-miterlimit:4;stroke-dasharray:none;stroke-opacity:1"
       id="path3939"
       d="M 270.85415,943.26369 C 270.98641,943.17566 271.11369,943.08011 271.23684,942.97987 C 271.44489,942.80638 271.6698,942.65508 271.88974,942.49732 C 272.13749,942.30794 272.38923,942.12386 272.64143,941.94043 C 272.88873,941.76244 273.1199,941.5653 273.34225,941.35738 C 273.55983,941.15856 273.7752,940.95723 273.97591,940.74121 C 274.17924,940.52279 274.384,940.30568 274.58574,940.0858 C 274.78306,939.86397 274.96457,939.6294 275.14947,939.39745 C 275.34357,939.15533 275.50576,938.88967 275.65511,938.61828 C 275.65511,938.61828 275.82988,938.54013 275.82988,938.54013 L 275.82988,938.54013 C 275.68109,938.81253 275.51915,939.07906 275.3256,939.32231 C 275.14009,939.55399 274.95948,939.78959 274.76238,940.01186 C 274.5612,940.23223 274.35566,940.44872 274.15257,940.66733 C 273.95268,940.88442 273.73731,941.08597 273.51945,941.28476 C 273.2977,941.49367 273.06663,941.69144 272.81948,941.87005 C 272.56699,942.05298 272.31531,942.23724 272.06786,942.42706 C 271.84781,942.58444 271.62323,942.736 271.41457,942.90839 C 271.29241,943.00995 271.16504,943.10592 271.03231,943.19296 C 271.03231,943.19296 270.85432,943.26382 270.85432,943.26382 L 270.85415,943.26369 z "
       inkscape:connector-curvature="0" />
    <path
       style="fill:none;stroke:#000000;stroke-width:0.85882455;stroke-linecap:round;stroke-linejoin:round;stroke-miterlimit:4;stroke-dasharray:none;stroke-opacity:1"
       id="path3941"
       d="M 204.50823,949.7193 C 204.71156,949.75494 204.91779,949.7689 205.12332,949.78393 C 205.42709,949.8054 205.73133,949.81849 206.03557,949.8303 C 206.42388,949.84533 206.81244,949.85199 207.20097,949.85864 C 207.72816,949.86938 208.25563,949.86509 208.7826,949.88312 C 209.29974,949.90824 209.81674,949.93572 210.33392,949.95934 C 210.80973,949.97652 211.28543,950.00529 211.76169,950.00507 C 212.20161,949.99434 212.64203,949.99004 213.08132,949.96428 C 213.50084,949.93486 213.91698,949.87045 214.33426,949.81957 C 214.73744,949.76203 215.13479,949.66992 215.52912,949.56961 C 215.89459,949.48652 216.24407,949.34904 216.6005,949.23533 C 216.92692,949.12282 217.24894,948.99716 217.566,948.86065 C 217.61624,948.8366 217.66712,948.81427 217.7165,948.78872 C 217.86186,948.714 218.00522,948.63134 218.14804,948.55156 C 218.30864,948.46202 218.33655,948.45687 218.25582,948.47984 C 218.25582,948.47984 218.43425,948.41028 218.43425,948.41028 L 218.43425,948.41028 C 218.10274,948.61339 217.76756,948.8129 217.41589,948.97934 C 217.09815,949.11482 216.77641,949.24156 216.44931,949.35258 C 216.09294,949.46681 215.74297,949.60325 215.37722,949.68591 C 214.98246,949.78597 214.58456,949.87743 214.18092,949.93392 C 213.76344,949.98502 213.34708,950.04943 212.92727,950.07777 C 212.4877,950.10332 212.04712,950.10826 211.60698,950.11749 C 211.13059,950.11666 210.65471,950.08958 210.17875,950.07112 C 209.66161,950.0475 209.14468,950.0198 208.62759,949.99511 C 208.10061,949.97793 207.57323,949.98223 207.04608,949.97106 C 206.65742,949.96462 206.26876,949.95818 205.88033,949.94251 C 205.57592,949.92963 205.27156,949.91717 204.96766,949.8957 C 204.76154,949.88067 204.55465,949.86629 204.35107,949.82914 C 204.35107,949.82914 204.50823,949.71964 204.50823,949.71964 L 204.50823,949.7193 z "
       inkscape:connector-curvature="0" />
    <path
       style="fill:#ffccaa;stroke:#000000;stroke-width:0.85882455;stroke-linecap:round;stroke-linejoin:round;stroke-miterlimit:4;stroke-dasharray:none;stroke-opacity:1"
       id="path3943"
       d="M 239.93088,941.95538 C 239.64766,941.88366 239.36681,941.80358 239.08288,941.73455 C 238.71665,941.62355 238.34508,941.53595 237.96969,941.46262 C 237.57757,941.37996 237.18986,941.27884 236.79892,941.19126 C 236.39175,941.09271 235.98692,940.98364 235.58703,940.8587 C 235.22839,940.75113 234.87344,940.63358 234.53102,940.48172 C 234.31116,940.38403 234.09367,940.28118 233.87933,940.17188 C 233.87933,940.17188 234.03928,940.06688 234.03928,940.06688 L 234.03928,940.06688 C 234.25356,940.17553 234.47073,940.27858 234.6904,940.37587 C 235.03262,940.52659 235.38716,940.64354 235.74516,940.75107 C 236.1449,940.87517 236.5492,940.98458 236.95617,941.08234 C 237.34687,941.17037 237.73457,941.27106 238.12664,941.35327 C 238.50216,941.42713 238.87365,941.51581 239.24037,941.62591 C 239.52391,941.69526 239.80427,941.7762 240.08775,941.84542 C 240.08775,941.84542 239.9308,941.95557 239.9308,941.95557 L 239.93088,941.95538 z "
       inkscape:connector-curvature="0" />
    <path
       style="fill:#ffe8c6;fill-opacity:1;fill-rule:nonzero;stroke:none"
       d="M 238.10038,955.03667 C 230.00527,952.75076 224.23123,950.06762 220.66049,946.93246 C 213.39563,940.55384 213.68668,937.15259 223.52433,913.46679 C 227.57809,903.70659 231.82927,892.39639 232.97138,888.33299 C 234.53414,882.77289 235.31762,881.0485 236.13803,881.36333 C 239.14678,882.51789 254.01784,883.43902 264.01896,883.09032 L 275.28903,882.69736 L 274.04872,884.5903 C 270.99854,889.24549 259.73916,895.5799 244.94846,900.96183 L 237.91486,903.52117 L 236.751,907.78176 C 235.13521,913.69672 232.41739,930.09597 232.3174,934.53399 C 232.19309,940.05078 232.83141,941.32553 236.01737,941.92321 C 237.54075,942.20901 239.51482,942.91962 240.40422,943.50238 C 241.29362,944.08513 245.46098,945.80705 249.66504,947.32885 C 260.86031,951.38138 261.41032,952.13917 255.241,955.0114 C 250.23596,957.34156 246.28346,957.3474 238.10038,955.03673 L 238.10038,955.03673 L 238.10038,955.03667 z "
       id="path3965"
       inkscape:connector-curvature="0" />
    <path
       style="fill:#ffe8c6;fill-opacity:1;fill-rule:nonzero;stroke:none"
       d="M 254.07742,958.74172 C 253.50995,958.48236 254.70777,957.49909 256.95592,956.37878 C 261.66221,954.03354 262.80765,951.32468 260.04052,949.08401 C 259.07372,948.30112 258.41783,947.56582 258.58301,947.44998 C 258.74811,947.33426 261.63265,946.57622 264.99291,945.76566 C 269.07572,944.78082 271.89268,943.59811 273.48453,942.20044 L 275.86659,940.10897 L 276.84758,943.93655 C 278.60328,950.78695 276.29311,956.13594 270.92569,957.6481 C 267.56631,958.59452 255.47284,959.37953 254.07742,958.74172 z "
       id="path3967"
       inkscape:connector-curvature="0" />
    <path
       style="fill:#550000;fill-opacity:1;fill-rule:nonzero;stroke:#666666;stroke-width:0.02819517;stroke-linecap:round;stroke-linejoin:round;stroke-miterlimit:4;stroke-dasharray:none;stroke-opacity:1"
       d="M 283.45336,1001.8265 C 281.96227,1001.6921 279.15632,1001.3975 277.21789,1001.1721 C 267.71394,1000.0671 257.20648,999.94791 231.5363,1000.654 C 211.35169,1001.2092 202.62241,1001.0212 197.51231,999.92122 C 191.21513,998.5657 186.2998,994.55303 183.15974,988.20445 C 180.77575,983.38456 179.39294,976.36579 179.38429,969.04144 C 179.37785,962.98026 180.40852,959.94034 183.52968,956.8235 C 186.15406,954.20275 188.76265,953.20583 198.46119,951.11712 C 201.02514,950.56494 201.92701,950.51099 207.54328,950.57377 C 214.20183,950.64827 215.56493,950.48896 217.77679,949.37796 L 219.08846,948.71916 L 220.91867,950.05033 C 224.80054,952.87376 228.10321,954.29595 236.00957,956.54872 C 241.99552,958.2543 242.73535,958.42364 245.12295,958.6345 C 246.22407,958.73176 247.30797,958.96843 247.53163,959.16042 C 248.2589,959.78474 253.73518,960.68372 257.69816,960.82933 C 260.71635,960.94012 262.32651,960.84866 265.56029,960.383 C 272.23381,959.4217 274.46302,958.66552 276.36274,956.71868 C 278.39742,954.63352 280.02803,949.89128 279.71103,946.98107 C 279.53154,945.33294 277.28554,937.41664 276.88338,937.01447 C 276.49456,936.62564 275.643,937.19783 275.23347,938.12296 C 274.90982,938.85416 272.5593,941.32629 271.52463,942.02372 C 270.77814,942.5269 261.52682,945.0433 258.37592,945.60021 C 256.9594,945.8506 255.47428,946.22672 255.07567,946.43608 C 254.40981,946.78579 254.10147,946.7267 251.28016,945.70889 C 249.59124,945.09958 246.98941,944.17262 245.49832,943.64898 C 244.00723,943.12533 242.17727,942.35612 241.43172,941.93962 C 240.68618,941.52311 239.4052,941.03373 238.58508,940.85213 C 234.7415,940.00097 234.7266,939.9871 234.23144,936.79573 C 233.89785,934.64564 234.06032,933.11571 235.47066,925.12203 C 235.98368,922.21441 236.58411,918.53967 236.80495,916.95596 C 237.30913,913.34048 238.35389,908.70555 239.17518,906.4409 L 239.80506,904.70397 L 246.44721,902.20895 C 260.65513,896.872 269.30268,892.24176 273.8677,887.52694 C 275.23342,886.11641 278.26344,882.13262 278.49193,881.44713 C 278.54046,881.30177 280.10352,880.8437 281.96558,880.42914 L 285.35113,879.67542 L 285.52032,880.64234 C 285.6135,881.17417 285.77043,885.45223 285.86921,890.14917 C 286.22945,907.27821 287.18221,915.14841 290.77027,930.63456 C 291.85988,935.33736 296.02026,948.97635 296.8656,950.61692 C 298.00509,952.82837 300.54912,954.08148 303.21341,953.74369 C 305.14336,953.49899 305.94009,953.22421 310.5154,951.22529 C 317.20575,948.30237 320.34565,948.07137 324.66161,950.18455 C 328.68666,952.15531 333.82862,957.24883 335.61903,961.03874 C 338.27076,966.65188 339.75341,975.62025 338.9021,980.89755 C 337.84996,987.4197 334.0363,993.54394 329.64805,995.75831 C 327.08627,997.05105 325.05716,997.63368 319.37503,998.70811 C 307.97061,1000.8646 290.04306,1002.4209 283.45328,1001.8265 L 283.45328,1001.8265 L 283.45336,1001.8265 z "
       id="path4026"
       inkscape:connector-curvature="0" />
    <path
       transform="matrix(2.5636553,0,0,2.834121,-767.9591,-651.04287)"
       d="m 435.37574,525.94641 a 8.4600277,3.1567266 0 1 1 -16.92006,0 8.4600277,3.1567266 0 1 1 16.92006,0 z"
       sodipodi:ry="3.1567266"
       sodipodi:rx="8.4600277"
       sodipodi:cy="525.94641"
       sodipodi:cx="426.91571"
       id="path5518"
       style="fill:#ffb9a3;fill-opacity:1;fill-rule:nonzero;stroke:none"
       sodipodi:type="arc" />
    <path
       sodipodi:type="arc"
       style="fill:#ffb9a3;fill-opacity:1;fill-rule:nonzero;stroke:none"
       id="path5516"
       sodipodi:cx="426.91571"
       sodipodi:cy="525.94641"
       sodipodi:rx="8.4600277"
       sodipodi:ry="3.1567266"
       d="m 435.37574,525.94641 a 8.4600277,3.1567266 0 1 1 -16.92006,0 8.4600277,3.1567266 0 1 1 16.92006,0 z"
       transform="matrix(2.8200208,0,0,2.834121,-1033.0212,-649.41624)" />
    <path
       style="fill:#ffe8c6;fill-opacity:1;fill-rule:nonzero;stroke:none"
       d="m 248.39878,880.86869 c -3.58482,-0.35107 -10.4861,-1.37023 -15.33616,-2.26483 -4.85006,-0.89457 -16.40969,-2.13083 -25.68804,-2.74721 -19.60001,-1.30204 -21.74188,-1.5572 -29.74316,-3.54323 -8.02909,-1.99294 -13.73492,-4.80944 -17.85466,-8.81336 -4.06398,-3.94976 -4.92852,-5.93993 -4.92852,-11.34574 l 0,-4.05522 4.02574,1.08925 c 6.07166,1.64278 22.63156,0.95059 28.09572,-1.17438 5.14122,-1.99939 7.75254,-4.37595 7.75254,-7.05561 0,-7.37711 -20.08541,-11.0981 -38.91548,-7.2094 -2.25646,0.466 -2.49218,0.34245 -2.49268,-1.30651 -10e-4,-3.4508 -3.88708,-15.98522 -9.61718,-31.02025 -5.97817,-15.68583 -8.48583,-23.9959 -9.28458,-30.76782 -0.44066,-3.73588 -0.32741,-4.11046 1.77854,-5.8825 1.23705,-1.04089 4.6325,-5.45656 7.54544,-9.81258 2.91294,-4.35602 7.90653,-10.55762 11.09687,-13.7813 7.13499,-7.20955 9.93076,-8.25023 23.8306,-8.87033 11.12307,-0.49625 17.92101,0.66284 34.83371,5.93927 14.49895,4.52341 21.65288,5.5839 34.5179,5.117 15.19666,-0.55151 26.32087,-3.83057 47.92548,-14.12684 10.84274,-5.16742 12.23908,-5.60544 18.06638,-5.6673 12.38631,-0.1314 31.0388,12.05513 40.23962,26.29057 1.70387,2.63623 3.49684,5.03965 3.98437,5.34097 0.67042,0.41434 0.66587,3.69077 -0.0193,13.44605 -0.96088,13.693 -2.17199,19.61206 -6.6384,32.44371 -3.37421,9.69396 -5.02397,18.75585 -5.02397,27.59635 l 0,6.68357 -3.64232,-1.79642 c -11.50354,-5.67364 -34.70993,-3.0449 -37.74205,4.27529 -0.90825,2.19271 -0.85406,2.67363 0.50877,4.51404 4.77339,6.44634 26.89267,8.40773 37.21615,3.30008 2.88724,-1.4285 2.89263,-1.42814 2.88355,0.19796 -0.0129,2.39075 -1.86101,8.92724 -3.32127,11.74966 -1.83436,3.54553 -5.5041,6.00643 -11.62237,7.79384 -16.7924,4.9058 -43.15368,11.99915 -50.52752,13.59607 -9.63732,2.08709 -22.16946,2.82053 -31.9043,1.86717 z m 10.32962,-17.49016 c 2.50049,-1.2615 11.14099,-9.21344 11.14099,-10.25314 0,-1.50515 -1.84737,-0.40938 -5.54697,3.29025 -4.96858,4.96857 -9.61437,7.13249 -14.01731,6.52899 -4.76856,-0.65358 -11.10269,-3.22267 -16.42167,-6.6605 -5.29903,-3.42493 -5.42167,-3.4686 -5.42167,-1.93083 0,1.58848 4.24596,4.61085 10.39336,7.39821 8.21687,3.72571 14.66675,4.25376 19.87327,1.62702 l 0,0 z M 201.79735,825.2841 c 6.42671,-1.36196 11.83913,-3.71787 14.5872,-6.3495 4.1023,-3.92848 1.94431,-4.55755 -2.52145,-0.73505 -4.0439,3.46145 -10.36038,5.34528 -19.26105,5.74442 -8.73306,0.39165 -14.18875,-1.07364 -22.37021,-6.0081 -5.35368,-3.22896 -6.64829,-3.62735 -6.64829,-2.04595 0,1.07198 6.19264,5.05658 11.11871,7.15424 7.89816,3.36327 16.26886,4.11042 25.09509,2.23994 z m 106.05961,-1.5652 c 6.06792,-1.52865 15.57914,-6.3976 17.44305,-8.92942 2.36636,-3.2143 1.19952,-4.44233 -1.42127,-1.49575 -7.14651,8.03495 -23.57258,11.51813 -36.1003,7.65514 -2.89119,-0.89151 -6.8843,-2.44431 -8.87357,-3.45063 -4.27332,-2.16181 -4.43463,-2.18498 -4.43463,-0.63708 0,1.38011 6.57521,4.60115 13.41914,6.57374 5.77293,1.66389 14.02419,1.78125 19.96758,0.284 z"
       id="path5520"
       inkscape:connector-curvature="0" />
    <path
       style="fill:#ffff00;fill-opacity:1;stroke:none;stroke-width:0.1"
       id="path2231"
       d="M 246.77261,902.01272 C 249.30712,902.7483 251.73239,902.34703 254.25237,902.03446 C 259.75322,900.12322 269.66616,893.79942 247.05247,906.74539 C 248.56661,905.80526 250.02486,904.78411 251.50192,903.7897 C 252.79183,902.7039 254.18551,901.75345 255.54923,900.76513 C 260.6559,896.35113 267.1083,893.84437 272.93582,890.5881 C 274.67743,889.93743 276.39178,889.2009 278.12883,888.51254 C 280.1191,888.0189 281.92606,887.047 283.73631,886.14684 C 281.55641,888.6326 272.36809,892.74881 274.86356,890.58003 C 275.73228,889.71814 275.78288,888.44169 276.23206,887.39687 L 289.6715,880.89044 C 289.30978,882.11984 289.33261,883.50382 288.57619,884.61317 C 284.27559,889.66706 279.23887,893.3274 272.10869,895.50247 C 270.21589,896.28739 268.33365,897.09289 266.38552,897.73698 C 264.67358,898.4549 262.95289,899.14812 261.23733,899.85645 C 263.93895,898.24515 271.99163,893.34266 269.41592,895.1484 C 268.07414,896.1606 266.81442,897.28994 265.37232,898.19124 C 263.92498,899.24808 262.57695,900.46346 260.96655,901.31574 C 254.54652,905.0513 249.34283,909.32683 242.3766,910.98632 C 239.73969,911.0598 237.12898,911.21929 234.51308,910.61409 L 246.77261,902.01272 z " />
  </g>
  <g
     inkscape:groupmode="layer"
     id="layer7"
     inkscape:label="Layer#5" />
  <g
     inkscape:groupmode="layer"
     id="layer2"
     inkscape:label="Layer"
     transform="translate(0,-552.36218)" />
</svg>
